<svg width="31" height="36" viewBox="0 0 31 36" fill="none" xmlns="http://www.w3.org/2000/svg">
<path fill-rule="evenodd" clip-rule="evenodd" d="M15.5512 17.0001C16.1035 17.0058 16.5465 17.4581 16.5408 18.0103L16.3749 34.0744C16.3692 34.6267 15.9169 35.0698 15.3647 35.0641C14.8124 35.0584 14.3694 34.6061 14.3751 34.0538L14.5409 17.9897C14.5466 17.4374 14.999 16.9944 15.5512 17.0001Z" fill="#961914"/>
<path fill-rule="evenodd" clip-rule="evenodd" d="M14.2679 1.22703C14.6056 1.03612 14.987 0.935791 15.375 0.935791C15.763 0.935791 16.1444 1.03612 16.4821 1.22703L29.6071 8.6455C29.954 8.84156 30.2426 9.12622 30.4434 9.47037C30.6442 9.81452 30.75 10.2058 30.75 10.6043V25.3956C30.75 25.7941 30.6442 26.1854 30.4434 26.5295C30.2426 26.8737 29.954 27.1583 29.6071 27.3544L16.4821 34.7729C16.1444 34.9638 15.763 35.0641 15.375 35.0641C14.987 35.0641 14.6056 34.9638 14.2679 34.7729L1.14287 27.3544C0.795996 27.1583 0.507407 26.8737 0.306608 26.5295C0.105808 26.1854 -4.76836e-07 25.7941 0 25.3956V10.6043C5.96063e-08 10.2058 0.105809 9.81452 0.306609 9.47037C0.507407 9.12622 0.795994 8.84156 1.14287 8.6455L14.2679 1.22703ZM15.375 2.93579C15.3319 2.93579 15.2895 2.94694 15.252 2.96815L14.7599 2.09759L15.252 2.96815L2.12699 10.3866C2.08845 10.4084 2.05638 10.44 2.03407 10.4783C2.01176 10.5165 2 10.56 2 10.6043V25.3956C2 25.4399 2.01176 25.4834 2.03407 25.5216C2.05638 25.5598 2.08844 25.5915 2.12699 25.6132L15.252 33.0317C15.2895 33.0529 15.3319 33.0641 15.375 33.0641C15.4181 33.0641 15.4605 33.0529 15.498 33.0317L28.623 25.6132C28.6616 25.5915 28.6936 25.5598 28.7159 25.5216C28.7382 25.4834 28.75 25.4399 28.75 25.3956V10.6043C28.75 10.56 28.7382 10.5165 28.7159 10.4783C28.6936 10.44 28.6616 10.4084 28.623 10.3866L15.498 2.96815L15.9901 2.09759L15.498 2.96815C15.4605 2.94694 15.4181 2.93579 15.375 2.93579Z" fill="#961914"/>
<path fill-rule="evenodd" clip-rule="evenodd" d="M0.299336 9.48346C0.568733 9.00134 1.17796 8.82889 1.66009 9.09829L15.5352 16.8513L29.0825 9.10487C29.5619 8.83072 30.1728 8.99714 30.447 9.47658C30.7211 9.95602 30.5547 10.5669 30.0752 10.8411L16.0373 18.8681C15.7328 19.0422 15.3593 19.0441 15.0531 18.873L0.684513 10.8442C0.202389 10.5748 0.0299391 9.96559 0.299336 9.48346Z" fill="#961914"/>
<path fill-rule="evenodd" clip-rule="evenodd" d="M7.68257 5.11664C7.95197 4.63452 8.5612 4.46207 9.04332 4.73146L23.54 12.8318C23.8563 13.0085 24.0523 13.3425 24.0523 13.7047V21.2047C24.0523 21.757 23.6045 22.2047 23.0523 22.2047C22.5 22.2047 22.0523 21.757 22.0523 21.2047V14.2915L8.06775 6.47739C7.58563 6.208 7.41318 5.59877 7.68257 5.11664Z" fill="#961914"/>
</svg>
