<svg width="40" height="40" viewBox="0 0 40 40" fill="none" xmlns="http://www.w3.org/2000/svg">
<path fill-rule="evenodd" clip-rule="evenodd" d="M20 6C12.268 6 6 12.268 6 20C6 27.732 12.268 34 20 34C27.732 34 34 27.732 34 20C34 12.268 27.732 6 20 6ZM4 20C4 11.1634 11.1634 4 20 4C28.8366 4 36 11.1634 36 20C36 28.8366 28.8366 36 20 36C11.1634 36 4 28.8366 4 20Z" fill="#961914"/>
<path fill-rule="evenodd" clip-rule="evenodd" d="M20 10.25C20.5523 10.25 21 10.6977 21 11.25V19H28.75C29.3023 19 29.75 19.4477 29.75 20C29.75 20.5523 29.3023 21 28.75 21H20C19.4477 21 19 20.5523 19 20V11.25C19 10.6977 19.4477 10.25 20 10.25Z" fill="#961914"/>
</svg>
