<svg width="34" height="30" viewBox="0 0 34 30" fill="none" xmlns="http://www.w3.org/2000/svg">
<path d="M1.01785 9.74899C1.00603 9.54175 1.00008 9.33376 1 9.12501C1.00032 7.2471 1.65102 5.42725 2.84148 3.97488C4.03193 2.52251 5.68866 1.52727 7.52998 1.15836C9.37131 0.789449 11.2836 1.06965 12.9416 1.95131C14.5997 2.83298 15.9013 4.26169 16.625 5.99454L16.625 5.99456C17.3487 4.2617 18.6503 2.83299 20.3083 1.95132C21.9664 1.06965 23.8787 0.78945 25.72 1.15836C27.5613 1.52727 29.2181 2.52251 30.4085 3.97488C31.599 5.42725 32.2497 7.2471 32.25 9.12501C32.25 19.75 16.625 28.5 16.625 28.5C16.625 28.5 10.3836 25.0049 5.79023 19.7502" stroke="#961914" stroke-width="2" stroke-linecap="round" stroke-linejoin="round"/>
</svg>
