<svg width="34" height="30" viewBox="0 0 34 30" fill="none" xmlns="http://www.w3.org/2000/svg">
<path d="M2 15H8.25L10.75 11.25L15.75 18.75L18.25 15H22" stroke="#961914" stroke-width="2" stroke-linecap="round" stroke-linejoin="round"/>
<path d="M1.39285 9.99898C1.38103 9.79174 1.37508 9.58375 1.375 9.375C1.37532 7.49708 2.02602 5.67724 3.21648 4.22487C4.40693 2.7725 6.06366 1.77725 7.90498 1.40834C9.74631 1.03943 11.6586 1.31963 13.3166 2.2013C14.9747 3.08296 16.2763 4.51168 17 6.24453L17 6.24454C17.7237 4.51169 19.0253 3.08297 20.6833 2.2013C22.3414 1.31964 24.2537 1.03944 26.095 1.40834C27.9363 1.77725 29.5931 2.77249 30.7835 4.22486C31.974 5.67723 32.6247 7.49708 32.625 9.375C32.625 20 17 28.75 17 28.75C17 28.75 10.7586 25.2548 6.16523 20.0002" stroke="#961914" stroke-width="2" stroke-linecap="round" stroke-linejoin="round"/>
</svg>
