<svg width="33" height="33" viewBox="0 0 33 33" fill="none" xmlns="http://www.w3.org/2000/svg">
<path fill-rule="evenodd" clip-rule="evenodd" d="M23.7071 9.29289C24.0976 9.68342 24.0976 10.3166 23.7071 10.7071L2.45711 31.9571C2.06658 32.3476 1.43342 32.3476 1.04289 31.9571C0.652369 31.5666 0.652369 30.9334 1.04289 30.5429L22.2929 9.29289C22.6834 8.90237 23.3166 8.90237 23.7071 9.29289Z" fill="#961914"/>
<path fill-rule="evenodd" clip-rule="evenodd" d="M29.8965 3.10352C26.6721 2.10337 23.2363 1.97892 19.9429 2.74746C16.488 3.55367 13.3276 5.31039 10.819 7.81898C8.31039 10.3276 6.55367 13.488 5.74746 16.9429C4.97892 20.2363 5.10337 23.6721 6.10352 26.8965C9.32792 27.8966 12.7637 28.0211 16.0572 27.2526C19.512 26.4463 22.6724 24.6896 25.181 22.181C27.6896 19.6724 29.4463 16.512 30.2526 13.0572C31.0211 9.76372 30.8966 6.32792 29.8965 3.10352ZM5.30985 27.6902L4.98875 28.6372C8.70197 29.8962 12.6934 30.0912 16.5117 29.2002C20.3299 28.3092 23.8228 26.3677 26.5952 23.5952C29.3677 20.8228 31.3092 17.3299 32.2002 13.5117C33.0912 9.69338 32.8962 5.70197 31.6372 1.98875C31.5373 1.69408 31.3059 1.46271 31.0113 1.36281C27.298 0.103801 23.3066 -0.0912224 19.4884 0.799788C15.6701 1.6908 12.1772 3.6323 9.40477 6.40477C6.6323 9.17723 4.6908 12.6701 3.79979 16.4884C2.90878 20.3066 3.1038 24.298 4.36281 28.0113L5.30985 27.6902Z" fill="#961914"/>
</svg>
