<svg width="36" height="30" viewBox="0 0 36 30" fill="none" xmlns="http://www.w3.org/2000/svg">
<path fill-rule="evenodd" clip-rule="evenodd" d="M31.125 9.75C29.9514 9.75 29 10.7014 29 11.875C29 13.0486 29.9514 14 31.125 14C32.2986 14 33.25 13.0486 33.25 11.875C33.25 10.7014 32.2986 9.75 31.125 9.75ZM27 11.875C27 9.59683 28.8468 7.75 31.125 7.75C33.4032 7.75 35.25 9.59683 35.25 11.875C35.25 14.1532 33.4032 16 31.125 16C28.8468 16 27 14.1532 27 11.875Z" fill="#961914"/>
<path fill-rule="evenodd" clip-rule="evenodd" d="M4.875 9.75C3.70139 9.75 2.75 10.7014 2.75 11.875C2.75 13.0486 3.70139 14 4.875 14C6.0486 14 7 13.0486 7 11.875C7 10.7014 6.0486 9.75 4.875 9.75ZM0.75 11.875C0.75 9.59683 2.59683 7.75 4.875 7.75C7.15317 7.75 9 9.59683 9 11.875C9 14.1532 7.15317 16 4.875 16C2.59683 16 0.75 14.1532 0.75 11.875Z" fill="#961914"/>
<path fill-rule="evenodd" clip-rule="evenodd" d="M12.375 2.25C11.2014 2.25 10.25 3.20139 10.25 4.375C10.25 5.5486 11.2014 6.5 12.375 6.5C13.5486 6.5 14.5 5.5486 14.5 4.375C14.5 3.20139 13.5486 2.25 12.375 2.25ZM8.25 4.375C8.25 2.09683 10.0968 0.25 12.375 0.25C14.6532 0.25 16.5 2.09683 16.5 4.375C16.5 6.65317 14.6532 8.5 12.375 8.5C10.0968 8.5 8.25 6.65317 8.25 4.375Z" fill="#961914"/>
<path fill-rule="evenodd" clip-rule="evenodd" d="M23.625 2.25C22.4514 2.25 21.5 3.20139 21.5 4.375C21.5 5.5486 22.4514 6.5 23.625 6.5C24.7986 6.5 25.75 5.5486 25.75 4.375C25.75 3.20139 24.7986 2.25 23.625 2.25ZM19.5 4.375C19.5 2.09683 21.3468 0.25 23.625 0.25C25.9032 0.25 27.75 2.09683 27.75 4.375C27.75 6.65317 25.9032 8.5 23.625 8.5C21.3468 8.5 19.5 6.65317 19.5 4.375Z" fill="#961914"/>
<path fill-rule="evenodd" clip-rule="evenodd" d="M14.0227 11.5768C15.1699 10.7156 16.5656 10.25 18 10.25C19.4344 10.25 20.8301 10.7156 21.9773 11.5768C23.1189 12.4338 23.9529 13.6364 24.3556 15.0055C24.3576 15.0121 24.3596 15.0187 24.3616 15.0254C24.7884 16.4927 25.7767 17.7325 27.1119 18.4755C28.4651 19.2101 29.4843 20.4368 29.9584 21.9019C30.4332 23.3688 30.3251 24.9622 29.6566 26.3515C28.9881 27.7409 27.8105 28.8197 26.368 29.3641C24.9274 29.9078 23.3331 29.877 21.9147 29.2781C19.406 28.2509 16.594 28.2509 14.0852 29.2782C12.6669 29.8765 11.0728 29.9069 9.63259 29.363C8.19053 28.8184 7.01331 27.7398 6.34497 26.3508C5.67663 24.9617 5.56843 23.3688 6.04279 21.9021C6.51657 20.4372 7.53523 19.2105 8.88796 18.4756C10.2232 17.7326 11.2116 16.4928 11.6384 15.0254C11.6403 15.0187 11.6423 15.0122 11.6444 15.0056C12.047 13.6365 12.8811 12.4338 14.0227 11.5768ZM13.5531 15.6037C12.9755 17.5702 11.6472 19.2309 9.85497 20.2263L9.84599 20.2313L9.84597 20.2313C8.94243 20.721 8.262 21.5397 7.94573 22.5176C7.62947 23.4954 7.70161 24.5575 8.14721 25.4836C8.59281 26.4098 9.3777 27.1289 10.3392 27.492C11.3006 27.8551 12.365 27.8343 13.3115 27.4339L13.3217 27.4296L13.3217 27.4296C16.3194 26.2004 19.6805 26.2004 22.6783 27.4296L22.6889 27.434L22.6888 27.434C23.6354 27.8349 24.7 27.856 25.6618 27.493C26.6235 27.13 27.4087 26.4107 27.8544 25.4844C28.3001 24.5581 28.3721 23.4957 28.0556 22.5177C27.7391 21.5397 27.0583 20.721 26.1544 20.2314C26.1504 20.2293 26.1465 20.2272 26.1426 20.225C24.3516 19.2294 23.0243 17.5694 22.447 15.6038C22.4449 15.5972 22.4429 15.5906 22.441 15.5839C22.1615 14.6223 21.5774 13.7774 20.7766 13.1762C19.9757 12.575 19.0014 12.25 18 12.25C16.9986 12.25 16.0243 12.575 15.2234 13.1762C14.4226 13.7774 13.8385 14.6223 13.559 15.5839C13.5571 15.5905 13.5551 15.5971 13.5531 15.6037Z" fill="#961914"/>
</svg>
