<svg width="31" height="31" viewBox="0 0 31 31" fill="none" xmlns="http://www.w3.org/2000/svg">
<path fill-rule="evenodd" clip-rule="evenodd" d="M18.9433 1.99029C19.0867 1.45696 19.6353 1.14088 20.1687 1.28432C22.4569 1.89973 24.5433 3.10559 26.2189 4.78113C27.8944 6.45667 29.1003 8.54306 29.7157 10.8313C29.8591 11.3647 29.543 11.9133 29.0097 12.0567C28.4764 12.2002 27.9277 11.8841 27.7843 11.3507C27.2599 9.40091 26.2324 7.62308 24.8047 6.19535C23.3769 4.76761 21.5991 3.74008 19.6493 3.21569C19.1159 3.07226 18.7998 2.52363 18.9433 1.99029Z" fill="#961914"/>
<path fill-rule="evenodd" clip-rule="evenodd" d="M17.6489 6.8211C17.7923 6.28777 18.3409 5.97169 18.8742 6.11513C20.3149 6.50258 21.6284 7.26177 22.6833 8.31665C23.7382 9.37154 24.4974 10.6851 24.8848 12.1257C25.0283 12.6591 24.7122 13.2077 24.1789 13.3511C23.6455 13.4946 23.0969 13.1785 22.9535 12.6452C22.657 11.5429 22.0762 10.5379 21.2691 9.73086C20.462 8.92378 19.457 8.34293 18.3548 8.0465C17.8215 7.90307 17.5054 7.35444 17.6489 6.8211Z" fill="#961914"/>
<path fill-rule="evenodd" clip-rule="evenodd" d="M7.92275 2.05209C6.35577 2.25345 4.91566 3.01852 3.87163 4.2044C2.82661 5.39141 2.25008 6.91863 2.25 8.5001C2.25 13.8707 4.38348 19.0214 8.18109 22.819C11.9787 26.6166 17.1293 28.75 22.4999 28.7501M7.92275 2.05209C7.97497 2.04624 8.02771 2.05726 8.07323 2.08359C8.11937 2.11027 8.15559 2.15123 8.17643 2.20029L11.3168 9.52789C11.3331 9.56579 11.3397 9.60711 11.3361 9.64817C11.3325 9.68924 11.3188 9.72878 11.2962 9.76328L8.69799 13.7333C8.48523 14.0556 8.35946 14.4274 8.33289 14.8127C8.30625 15.1991 8.38029 15.5857 8.54776 15.9349L9.44943 15.5024L8.55112 15.9418C9.94612 18.7938 12.2579 21.0951 15.1162 22.4771L15.1233 22.4805C15.4746 22.6469 15.8632 22.7191 16.2508 22.6897C16.6374 22.6605 17.0097 22.5314 17.3314 22.315C17.3323 22.3144 17.3332 22.3138 17.3341 22.3132L21.2414 19.7078C21.2759 19.6847 21.3158 19.6706 21.3572 19.6668C21.3986 19.663 21.4403 19.6696 21.4785 19.686L28.7968 22.8224L28.7998 22.8236C28.8488 22.8445 28.8898 22.8807 28.9165 22.9268C28.9428 22.9723 28.9538 23.0251 28.948 23.0773C28.7466 24.6443 27.9815 26.0844 26.7957 27.1284C25.6087 28.1734 24.0814 28.75 22.4999 28.7501M10.35 15.0678C11.5477 17.5137 13.5306 19.4876 15.9819 20.6742C16.0188 20.6912 16.0594 20.6985 16.0999 20.6954C16.1413 20.6923 16.1811 20.6785 16.2154 20.6553L16.2199 20.6523L20.1318 18.0438C20.4432 17.8361 20.8015 17.7094 21.1742 17.6752C21.5469 17.6409 21.9223 17.7002 22.2664 17.8477L29.5817 20.9828C29.5824 20.9831 29.5831 20.9834 29.5837 20.9837C30.031 21.1742 30.4044 21.5047 30.6478 21.9255C30.8915 22.347 30.9917 22.8363 30.9332 23.3197L30.9324 23.3263C30.6703 25.3776 29.6694 27.2631 28.1172 28.6296C26.5651 29.9961 24.568 30.7499 22.5001 30.7501C16.599 30.7501 10.9396 28.4059 6.76687 24.2332C2.59419 20.0605 0.25 14.4011 0.25 8.50005C0.250109 6.43207 1.00399 4.43498 2.37049 2.88282C3.73699 1.33065 5.62241 0.329798 7.6737 0.067651L7.68033 0.0668047C8.1637 0.00830801 8.65301 0.10851 9.0745 0.352273C9.49541 0.595699 9.82594 0.969142 10.0164 1.41647C10.0167 1.41709 10.017 1.41771 10.0172 1.41833L13.1551 8.74006C13.3013 9.08108 13.3608 9.45295 13.3285 9.82257C13.2961 10.1922 13.1729 10.5481 12.9697 10.8585L10.3702 14.8303L10.3673 14.8348C10.3445 14.8693 10.331 14.909 10.3282 14.9503C10.3254 14.9907 10.3329 15.0311 10.35 15.0678Z" fill="#961914"/>
</svg>
