<svg width="32" height="32" viewBox="0 0 32 32" fill="none" xmlns="http://www.w3.org/2000/svg">
<path fill-rule="evenodd" clip-rule="evenodd" d="M16 2C8.26801 2 2 8.26801 2 16C2 23.732 8.26801 30 16 30C23.732 30 30 23.732 30 16C30 8.26801 23.732 2 16 2ZM0 16C0 7.16344 7.16344 0 16 0C24.8366 0 32 7.16344 32 16C32 24.8366 24.8366 32 16 32C7.16344 32 0 24.8366 0 16Z" fill="#961914"/>
<path fill-rule="evenodd" clip-rule="evenodd" d="M22.9971 18.8837C23.4752 19.1601 23.6387 19.7718 23.3623 20.2499C22.6156 21.5415 21.5422 22.614 20.2499 23.3595C18.9576 24.1051 17.492 24.4976 16.0001 24.4976C14.5081 24.4976 13.0425 24.1052 11.7502 23.3596C10.4579 22.6141 9.38448 21.5416 8.63772 20.2501C8.36128 19.7719 8.52477 19.1603 9.00289 18.8838C9.48101 18.6074 10.0927 18.7709 10.3691 19.249C10.9403 20.2368 11.7613 21.057 12.7496 21.6272C13.738 22.1975 14.859 22.4976 16 22.4976C17.1411 22.4976 18.2621 22.1974 19.2504 21.6272C20.2388 21.0569 21.0597 20.2367 21.6309 19.2489C21.9073 18.7708 22.519 18.6073 22.9971 18.8837Z" fill="#961914"/>
<path d="M10.375 14.75C11.4105 14.75 12.25 13.9105 12.25 12.875C12.25 11.8395 11.4105 11 10.375 11C9.33947 11 8.5 11.8395 8.5 12.875C8.5 13.9105 9.33947 14.75 10.375 14.75Z" fill="#961914"/>
<path d="M21.625 14.75C22.6605 14.75 23.5 13.9105 23.5 12.875C23.5 11.8395 22.6605 11 21.625 11C20.5895 11 19.75 11.8395 19.75 12.875C19.75 13.9105 20.5895 14.75 21.625 14.75Z" fill="#961914"/>
</svg>
