<svg width="112" height="263" viewBox="0 0 112 263" fill="none" xmlns="http://www.w3.org/2000/svg">
<g clip-path="url(#clip0_191_1282)">
<path d="M15.9238 252.346C31.8085 245.163 45.6018 233.79 56.1973 220.003C67.0004 205.956 74.6478 189.189 77.4942 171.649C78.9694 162.538 79.076 152.941 76.0323 144.138C72.9665 135.27 66.8847 127.723 60.0848 121.385C53.1625 114.915 45.0796 109.317 36.1879 105.929C28.086 102.831 18.8332 101.673 10.57 104.843C-2.22262 109.758 -11.0699 127.544 -1.15682 139.115C1.59344 142.318 5.29822 144.533 9.17557 146.105C13.3742 147.802 17.9576 148.872 22.4982 148.925C31.2235 149.034 38.7766 144.688 44.2838 138.116C55.8066 124.4 58.867 104.59 56.2621 87.3047C53.5539 69.3017 44.313 52.9407 31.3832 40.2655C19.022 28.1175 3.50113 19.2252 -13.2829 14.8266C-29.4967 10.5807 -46.9831 10.5696 -62.8952 16.0885C-66.7431 17.4242 -70.5043 19.0987 -74.0806 21.0397C-74.6122 21.3312 -74.1458 22.1662 -73.6093 21.8563C-59.1592 13.9931 -42.4374 11.4128 -26.1704 13.3259C-9.76972 15.2551 5.96899 21.6418 19.3099 31.3109C33.363 41.4864 45.0153 55.397 51.1891 71.7251C57.5097 88.3884 58.0498 107.566 51.3239 124.205C48.2188 131.893 43.3755 139.372 36.3263 143.972C28.5624 149.031 19.235 148.741 10.7624 145.701C3.15319 142.972 -3.97266 137.335 -4.49664 128.694C-4.9233 121.677 -1.32717 114.732 3.80939 110.132C17.4418 97.888 37.7057 105.783 50.6167 114.923C58.3231 120.38 65.5026 127.215 70.5926 135.225C75.5699 143.067 77.6786 151.975 77.4902 161.214C77.322 170.084 75.3662 178.928 72.5498 187.305C69.8257 195.411 66.1463 203.182 61.6211 210.431C52.7033 224.727 40.5381 237.088 26.1236 245.848C22.66 247.958 19.08 249.839 15.3789 251.509C14.894 251.774 15.3653 252.591 15.9238 252.346Z" fill="#EAD1D0"/>
</g>
<defs>
<clipPath id="clip0_191_1282">
<rect x="53.6622" y="262.576" width="186" height="222" rx="2" transform="rotate(-165 53.6622 262.576)" fill="white"/>
</clipPath>
</defs>
</svg>
