<svg width="60" height="60" viewBox="0 0 60 60" fill="none" xmlns="http://www.w3.org/2000/svg">
<g clip-path="url(#clip0_177_119)">
<path d="M29.9996 59.9867C46.561 59.9867 59.9867 46.561 59.9867 29.9996C59.9867 13.4382 46.561 0.0125122 29.9996 0.0125122C13.4381 0.0125122 0.0124512 13.4382 0.0124512 29.9996C0.0124512 46.561 13.4381 59.9867 29.9996 59.9867Z" fill="#EAD1D0"/>
<path d="M30.0001 50.4728C41.3068 50.4728 50.4728 41.3069 50.4728 30.0001C50.4728 18.6934 41.3068 9.5274 30.0001 9.5274C18.6933 9.5274 9.52734 18.6934 9.52734 30.0001C9.52734 41.3069 18.6933 50.4728 30.0001 50.4728Z" stroke="#961914" stroke-width="0.5" stroke-miterlimit="10"/>
<path d="M35.4534 3.40361L33.2876 3.10709L32.7848 6.79424L32.1788 6.704L32.759 2.50116L35.5179 2.88792L35.4534 3.40361Z" fill="#961914"/>
<path d="M35.4921 7.07784C35.2858 6.87156 35.144 6.63951 35.0667 6.35588C34.9893 6.07225 35.0022 5.78863 35.0796 5.47921C35.1698 5.1698 35.3116 4.92485 35.5179 4.71858C35.7242 4.5123 35.9691 4.38338 36.2528 4.31892C36.5364 4.25446 36.8329 4.26735 37.1423 4.34471C37.4517 4.43495 37.7096 4.57676 37.9158 4.77015C38.1221 4.97642 38.2639 5.20848 38.3284 5.49211C38.4057 5.77573 38.3929 6.05936 38.3155 6.36877C38.2381 6.67818 38.0834 6.92313 37.8901 7.12941C37.6967 7.33568 37.4388 7.4646 37.1552 7.54196C36.8716 7.60642 36.5751 7.60642 36.2656 7.51617C35.9562 7.42593 35.6984 7.28411 35.4921 7.07784ZM36.9747 7.02627C37.1552 6.9747 37.3228 6.88446 37.4517 6.74264C37.5935 6.60083 37.6838 6.42034 37.7482 6.21407C37.8127 5.9949 37.8127 5.80152 37.774 5.60814C37.7225 5.41475 37.6451 5.26005 37.5033 5.11823C37.3615 4.97642 37.1939 4.89907 37.0005 4.83461C36.8071 4.78304 36.6137 4.77015 36.4332 4.82172C36.2528 4.87328 36.0852 4.96353 35.9562 5.10534C35.8273 5.24716 35.7242 5.42765 35.6597 5.63392C35.5953 5.85309 35.5953 6.04647 35.6339 6.23985C35.6726 6.43323 35.7629 6.60083 35.9047 6.72975C36.0336 6.85867 36.2012 6.96181 36.3946 7.01338C36.6008 7.07784 36.7813 7.07784 36.9747 7.02627Z" fill="#961914"/>
<path d="M41.835 8.74095C41.719 8.9988 41.5256 9.1535 41.2678 9.19218C41.0099 9.24375 40.6876 9.17929 40.3137 8.9988L38.9214 8.3413L40.3008 5.42767L41.6545 6.07228C42.0026 6.23988 42.2347 6.42037 42.3636 6.65243C42.4925 6.88448 42.5054 7.10365 42.3894 7.33571C42.312 7.49042 42.2089 7.60644 42.08 7.6709C41.9381 7.74826 41.7834 7.77404 41.6158 7.76115C41.9381 8.03188 42.0155 8.36708 41.835 8.74095ZM40.997 8.70228C41.1388 8.68938 41.242 8.59914 41.3193 8.45733C41.3838 8.30262 41.3967 8.1737 41.3322 8.04478C41.2678 7.91586 41.1259 7.81272 40.9068 7.70958L40.0301 7.29703L39.6176 8.1737L40.4684 8.57335C40.6747 8.67649 40.8552 8.71517 40.997 8.70228ZM40.2106 6.92316L40.997 7.29703C41.2033 7.38728 41.3709 7.42595 41.5127 7.40017C41.6545 7.37439 41.7577 7.29703 41.8221 7.15522C41.951 6.87159 41.8092 6.63953 41.4096 6.44615L40.6103 6.07228L40.2106 6.92316Z" fill="#961914"/>
<path d="M46.3989 8.98593L44.5553 11.6159L44.1298 11.3194L44.71 10.4814L43.9493 9.93995L43.8978 9.90127L42.7375 10.3267L42.2218 9.96573L43.4981 9.51451C43.3434 9.32113 43.2532 9.11485 43.2532 8.89569C43.2403 8.68941 43.3047 8.47025 43.4594 8.27686C43.6657 7.98034 43.9365 7.81275 44.2459 7.79985C44.5682 7.78696 44.9034 7.90299 45.2643 8.16083L46.3989 8.98593ZM43.8075 9.15353C43.8591 9.32113 44.0009 9.47583 44.2201 9.63054L44.9549 10.1462L45.6769 9.11485L44.9678 8.61206C44.5166 8.28976 44.1556 8.30265 43.9107 8.65074C43.7946 8.81833 43.756 8.98593 43.8075 9.15353Z" fill="#961914"/>
<path d="M48.294 14.4651L47.4045 15.3547L47.0177 14.9679L47.5463 14.4393L45.6511 12.5313L45.1225 13.0599L44.7358 12.6731L45.6253 11.7835L45.7414 11.8996C45.8961 12.0414 46.1023 12.0285 46.3473 11.8996C46.6051 11.7577 46.9145 11.5128 47.3013 11.1776L48.1006 10.4427L49.854 12.209L47.933 14.117L48.294 14.4651ZM46.863 12.2219C46.6438 12.3766 46.4375 12.441 46.2571 12.4281L47.5205 13.7045L49.0804 12.1574L48.1006 11.1647L47.6365 11.5773C47.3529 11.8609 47.095 12.0672 46.863 12.2219Z" fill="#961914"/>
<path d="M51.1947 13.7947L51.517 14.2717L49.5832 15.5867L52.6258 15.909L52.9223 16.3473L50.2536 18.1522L49.9313 17.6752L51.8651 16.3602L48.8226 16.0508L48.5261 15.6125L51.1947 13.7947Z" fill="#961914"/>
<path d="M53.8763 18.0748L54.1083 18.6163L52.8578 19.1578L53.5797 20.8337L54.8303 20.2923L55.0623 20.8337L52.11 22.1101L51.878 21.5686L53.1156 21.04L52.3808 19.364L51.1431 19.8926L50.9111 19.364L53.8763 18.0748Z" fill="#961914"/>
<path d="M55.8617 24.8819C55.707 25.1655 55.4104 25.346 54.9979 25.4492L53.1156 25.9004L52.9867 25.3589L53.3993 25.2558C53.2317 25.1913 53.0899 25.0882 52.9738 24.9335C52.8578 24.7788 52.7676 24.5725 52.716 24.3404C52.6386 23.9924 52.6515 23.6958 52.7676 23.438C52.8836 23.193 53.0899 23.0254 53.3606 22.961C53.6313 22.8965 53.8763 22.9481 54.0954 23.1028C54.3146 23.2575 54.4693 23.5669 54.5725 24.0053L54.7916 24.9077L54.9077 24.8819C55.1526 24.8303 55.3202 24.7143 55.4233 24.5338C55.5265 24.3533 55.5394 24.1342 55.4749 23.8634C55.4362 23.6829 55.3589 23.5025 55.2557 23.3478C55.1526 23.1802 55.0366 23.0512 54.9077 22.961L55.2815 22.6258C55.4491 22.7547 55.5909 22.9223 55.7199 23.1286C55.8488 23.3349 55.939 23.5669 55.9906 23.8248C56.0551 24.2373 56.0293 24.5983 55.8617 24.8819ZM53.438 24.8561C53.5669 24.9851 53.7345 25.0753 53.9279 25.1011L54.3662 24.9979L54.1599 24.1213C54.0439 23.6443 53.8247 23.438 53.5024 23.5154C53.3477 23.554 53.2317 23.6443 53.1801 23.7861C53.1156 23.9279 53.1157 24.1084 53.1672 24.3276C53.2188 24.5467 53.309 24.7272 53.438 24.8561Z" fill="#961914"/>
<path d="M58.5561 30.3868L58.569 30.9154L52.832 28.9816V28.453L58.5561 30.3868Z" fill="#961914"/>
<path d="M57.3572 34.6026L57.2153 35.1828L54.031 34.4221L56.6352 37.6323L56.5063 38.1737L52.3808 37.1939L52.5226 36.6138L55.707 37.3744L53.1156 34.1643L53.2446 33.6228L57.3572 34.6026Z" fill="#961914"/>
<path d="M54.7787 39.9141L54.5338 40.4427L53.2961 39.8625L52.5226 41.5256L53.7603 42.1058L53.5153 42.6343L50.6017 41.2807L50.8466 40.7521L52.0714 41.3193L52.8449 39.6563L51.6202 39.089L51.8651 38.5604L54.7787 39.9141Z" fill="#961914"/>
<path d="M48.41 45.4062L47.3915 44.6714L47.701 44.233L48.3069 44.6714L49.8797 42.4926L49.2738 42.0543L49.5961 41.603L50.6146 42.3379L50.5114 42.4797C50.3954 42.6602 50.4341 42.8536 50.6146 43.0727C50.7951 43.2919 51.0916 43.5755 51.4783 43.8849L52.3292 44.5553L50.8724 46.5794L48.6679 45.0065L48.41 45.4062ZM50.3825 43.6271C50.202 43.4337 50.0989 43.2403 50.0731 43.0727L49.0288 44.5424L50.808 45.8188L51.6202 44.6842L51.1303 44.2975C50.8208 44.0525 50.5759 43.8205 50.3825 43.6271Z" fill="#961914"/>
<path d="M46.2055 48.8742L48.0748 47.0564C47.8557 46.8759 47.5978 46.7985 47.3271 46.8243C47.0564 46.8501 46.8114 46.9661 46.5794 47.1853C46.3086 47.456 46.1668 47.7655 46.1797 48.1135L45.6898 48.062C45.6769 47.8428 45.7156 47.6236 45.8058 47.4045C45.8961 47.1853 46.0379 46.9919 46.2313 46.8114C46.4762 46.5794 46.747 46.4118 47.0306 46.3344C47.3142 46.2571 47.5978 46.2442 47.8815 46.3344C48.1522 46.4118 48.41 46.5665 48.6292 46.7985C48.8484 47.0177 48.9902 47.2756 49.0675 47.5463C49.1449 47.8299 49.1449 48.1007 49.0675 48.3714C48.9902 48.6421 48.8355 48.8871 48.6163 49.0933C48.3971 49.3125 48.1522 49.4414 47.8815 49.5188C47.6107 49.5832 47.34 49.5704 47.0693 49.493C46.7985 49.4156 46.5536 49.2481 46.3215 49.016C46.2828 48.9773 46.2442 48.9257 46.2055 48.8742ZM48.6034 48.062C48.6163 47.8041 48.539 47.5721 48.3714 47.3529L46.8888 48.7839C47.095 48.9515 47.3271 49.0418 47.5849 49.0289C47.8428 49.0289 48.0619 48.9257 48.2682 48.7324C48.4745 48.539 48.5776 48.3198 48.6034 48.062Z" fill="#961914"/>
<path d="M46.0894 51.2592L45.5995 51.5815L44.2974 49.6348L43.9493 52.6773L43.511 52.9739L41.7319 50.2923L42.2218 49.97L43.5239 51.9167L43.8591 48.8742L44.2974 48.5776L46.0894 51.2592ZM45.7671 52.239C45.9863 52.2648 46.1668 52.3937 46.3215 52.6129L45.9992 52.832C45.9089 52.716 45.8058 52.6387 45.6769 52.6129C45.5479 52.5871 45.4061 52.6258 45.2643 52.716C45.1225 52.8063 45.0452 52.9223 45.0065 53.0512C44.9678 53.1801 44.9936 53.309 45.0709 53.438L44.7357 53.6571C44.5939 53.4251 44.5424 53.2059 44.6068 52.9996C44.6713 52.7934 44.826 52.6 45.0709 52.4324C45.3159 52.2777 45.5608 52.2132 45.7671 52.239Z" fill="#961914"/>
<path d="M39.9141 52.6773L40.52 52.4066L39.9786 51.1561L40.5071 50.924L41.7835 53.8763L41.242 54.1084L40.7005 52.8578L40.0817 53.1286L39.6692 54.7917L39.1019 55.0366L39.6047 53.1286L37.7482 52.123L38.3799 51.8522L39.9141 52.6773Z" fill="#961914"/>
<path d="M35.5824 55.7199C35.2987 55.5652 35.1054 55.2816 35.0022 54.8561L34.5252 52.9739L35.0667 52.8321L35.1698 53.2446C35.2214 53.077 35.3374 52.9352 35.4921 52.8063C35.6468 52.6902 35.8402 52.6 36.0852 52.5355C36.4332 52.4453 36.7298 52.4582 36.9876 52.5742C37.2454 52.6902 37.4002 52.8836 37.4775 53.1544C37.542 53.4251 37.5033 53.6701 37.3486 53.8892C37.1939 54.1084 36.8974 54.276 36.459 54.3791L35.5695 54.6112L35.5953 54.7272C35.6597 54.9722 35.7757 55.1398 35.9433 55.23C36.1109 55.3202 36.343 55.3331 36.6137 55.2687C36.7942 55.2171 36.9747 55.1526 37.1294 55.0366C37.2841 54.9206 37.413 54.8175 37.5162 54.6756L37.8643 55.0366C37.7354 55.2042 37.5678 55.3589 37.3615 55.475C37.1552 55.6039 36.9231 55.6941 36.6782 55.7586C36.227 55.9004 35.866 55.8746 35.5824 55.7199ZM35.5695 53.2962C35.4405 53.4251 35.3632 53.5927 35.3374 53.7861L35.4405 54.2244L36.3043 54.0052C36.7813 53.8892 36.9876 53.6701 36.8974 53.3477C36.8587 53.193 36.7684 53.077 36.6266 53.0254C36.4848 52.961 36.3043 52.961 36.0852 53.0254C35.8789 53.0641 35.6984 53.1544 35.5695 53.2962Z" fill="#961914"/>
<path d="M23.8634 56.4161L26.0164 56.79L26.6352 53.1286L27.2282 53.2317L26.5063 57.4217L23.7603 56.9576L23.8634 56.4161Z" fill="#961914"/>
<path d="M23.9279 52.7289C24.1341 52.9352 24.2631 53.1801 24.3404 53.4638C24.4049 53.7474 24.392 54.031 24.3017 54.3404C24.2115 54.6498 24.0568 54.8948 23.8505 55.0882C23.6442 55.2815 23.3993 55.4105 23.1157 55.4749C22.832 55.5394 22.5355 55.5265 22.2261 55.4234C21.9167 55.3331 21.6588 55.1913 21.4655 54.985C21.2592 54.7788 21.1303 54.5338 21.0658 54.2631C21.0013 53.9794 21.0142 53.6958 21.1045 53.3864C21.1947 53.0899 21.3365 52.832 21.5557 52.6387C21.7749 52.4453 22.0069 52.3164 22.2906 52.2519C22.5742 52.1874 22.8707 52.2003 23.1801 52.2906C23.4766 52.3679 23.7216 52.5226 23.9279 52.7289ZM22.4453 52.7418C22.2648 52.7934 22.0972 52.8836 21.9683 53.0125C21.8264 53.1543 21.7233 53.3219 21.6588 53.5411C21.5944 53.7603 21.5815 53.9537 21.6202 54.147C21.6588 54.3404 21.7491 54.508 21.878 54.6369C22.0069 54.7788 22.1745 54.869 22.3679 54.9335C22.5613 54.9979 22.7547 54.9979 22.9352 54.9592C23.1157 54.9206 23.2832 54.8303 23.4251 54.6885C23.5669 54.5467 23.67 54.3791 23.7345 54.1599C23.7989 53.9408 23.8118 53.7474 23.7603 53.554C23.7216 53.3606 23.6313 53.193 23.5024 53.0641C23.3735 52.9223 23.2059 52.832 23.0125 52.7676C22.8191 52.7031 22.6257 52.7031 22.4453 52.7418Z" fill="#961914"/>
<path d="M17.6494 50.8853C17.7783 50.6275 17.9717 50.4857 18.2295 50.447C18.4874 50.4083 18.8097 50.4857 19.1835 50.679L20.563 51.3881L19.1062 54.2502L17.7783 53.5669C17.4431 53.3993 17.2111 53.193 17.0821 52.9738C16.9532 52.7547 16.9532 52.5226 17.0692 52.2777C17.1466 52.123 17.2497 52.0198 17.3915 51.9554C17.5334 51.8909 17.6881 51.8651 17.8557 51.878C17.5334 51.5815 17.456 51.2592 17.6494 50.8853ZM19.2222 52.7547L18.4487 52.355C18.2553 52.2519 18.0877 52.2132 17.9459 52.239C17.8041 52.2519 17.701 52.3421 17.6365 52.4711C17.4947 52.7418 17.6236 52.9867 18.0361 53.193L18.8097 53.5927L19.2222 52.7547ZM18.4745 50.9498C18.3327 50.9627 18.2166 51.04 18.1522 51.1818C18.0748 51.3365 18.0748 51.4655 18.1264 51.5815C18.1909 51.7104 18.3327 51.8264 18.5389 51.9296L19.4027 52.3679L19.841 51.5041L19.0031 51.0787C18.7968 50.9885 18.6163 50.9369 18.4745 50.9498Z" fill="#961914"/>
<path d="M13.0856 50.4857L15.0194 47.9202L15.4319 48.2296L14.826 49.0418L15.5738 49.609L15.6253 49.6477L16.7985 49.2609L17.3013 49.6348L16.0121 50.0474C16.1668 50.2536 16.2441 50.4599 16.2441 50.6662C16.2441 50.8725 16.1668 51.0787 16.025 51.285C15.8058 51.5815 15.5351 51.7233 15.2257 51.7362C14.9034 51.7362 14.5682 51.6073 14.2201 51.3495L13.0856 50.4857ZM15.6769 50.4083C15.6253 50.2407 15.4964 50.086 15.2772 49.9185L14.5682 49.377L13.8075 50.3955L14.5037 50.9111C14.9549 51.2463 15.303 51.2463 15.5609 50.9111C15.6769 50.7307 15.7156 50.5631 15.6769 50.4083Z" fill="#961914"/>
<path d="M11.3967 44.9807L12.3121 44.1169L12.6859 44.5166L12.1445 45.0194L13.9751 46.979L14.5166 46.4762L14.8905 46.8759L13.9751 47.7267L13.8591 47.5978C13.7044 47.456 13.511 47.456 13.2532 47.5849C12.9953 47.7139 12.673 47.9459 12.2863 48.2811L11.4612 48.9902L9.74652 47.1853L11.719 45.3417L11.3967 44.9807ZM12.7504 47.2755C12.9824 47.1337 13.1758 47.0692 13.3563 47.0821L12.1316 45.7671L10.52 47.2626L11.4741 48.2811L11.9511 47.8815C12.2605 47.6236 12.5183 47.4173 12.7504 47.2755Z" fill="#961914"/>
<path d="M8.45732 45.5351L8.14791 45.0452L10.1204 43.7947L7.09076 43.3821L6.80713 42.9309L9.52737 41.2162L9.83678 41.7061L7.85139 42.9567L10.881 43.3692L11.1647 43.8205L8.45732 45.5351Z" fill="#961914"/>
<path d="M5.90467 41.1647L5.6855 40.6232L6.94893 40.1204L6.29143 38.4187L5.028 38.9215L4.80884 38.38L7.79981 37.1939L8.01898 37.7354L6.76844 38.2253L7.43883 39.927L8.68937 39.4371L8.90854 39.9786L5.90467 41.1647Z" fill="#961914"/>
<path d="M4.13844 34.3447C4.30604 34.074 4.60256 33.8935 5.028 33.8033L6.92315 33.4165L7.03917 33.958L6.61373 34.0353C6.78133 34.0998 6.92315 34.2158 7.03917 34.3705C7.1552 34.5252 7.23256 34.7315 7.28413 34.9765C7.36148 35.3245 7.33569 35.634 7.20677 35.8789C7.07785 36.1239 6.87158 36.2786 6.60084 36.3301C6.31722 36.3817 6.07227 36.3301 5.86599 36.1625C5.65972 35.9949 5.50501 35.6855 5.41477 35.2472L5.23428 34.3447L5.11825 34.3705C4.8733 34.4221 4.69281 34.5252 4.60256 34.7057C4.49942 34.8733 4.47364 35.0925 4.5381 35.3761C4.57678 35.5566 4.64124 35.7371 4.74437 35.9047C4.84751 36.0723 4.95065 36.2012 5.07957 36.3043L4.7057 36.6266C4.5381 36.4848 4.39629 36.3172 4.28026 36.111C4.16423 35.9047 4.07398 35.6726 4.02242 35.4148C3.93217 34.9765 3.97085 34.6155 4.13844 34.3447ZM6.56217 34.435C6.43324 34.2932 6.26565 34.2158 6.07226 34.1771L5.63393 34.2674L5.81442 35.1441C5.91756 35.634 6.12383 35.8402 6.44614 35.7629C6.60084 35.7242 6.71687 35.6468 6.78133 35.505C6.84579 35.3632 6.85869 35.1827 6.80712 34.9636C6.78133 34.7573 6.69109 34.5768 6.56217 34.435Z" fill="#961914"/>
<path d="M1.61157 28.7366L1.62446 28.2081L7.3099 30.3095L7.297 30.8381L1.61157 28.7366Z" fill="#961914"/>
<path d="M2.95233 24.5338L3.10704 23.9537L6.26561 24.8174L3.76454 21.5299L3.90635 20.9885L8.00605 22.1101L7.85134 22.6773L4.69277 21.8136L7.18095 25.1011L7.03914 25.6425L2.95233 24.5338Z" fill="#961914"/>
<path d="M5.68549 19.3254L5.94333 18.8097L7.16808 19.4285L7.99318 17.7912L6.76843 17.1724L7.03916 16.6567L9.91411 18.1135L9.65626 18.6292L8.4573 18.0233L7.6322 19.6606L8.83117 20.2665L8.57332 20.7822L5.68549 19.3254Z" fill="#961914"/>
<path d="M12.2476 14.0139L13.2403 14.7745L12.9051 15.2128L12.312 14.7616L10.6747 16.8888L11.2678 17.34L10.9326 17.7784L9.93988 17.0177L10.043 16.8888C10.159 16.7212 10.1333 16.5149 9.95277 16.2829C9.77228 16.0508 9.50155 15.7672 9.11478 15.432L8.27679 14.7358L9.79807 12.7504L11.9382 14.4006L12.2476 14.0139ZM10.2106 15.7285C10.3911 15.9348 10.4813 16.1153 10.4942 16.2958L11.5901 14.8647L9.84963 13.524L8.99875 14.6327L9.47576 15.0323C9.78517 15.2902 10.0301 15.5222 10.2106 15.7285Z" fill="#961914"/>
<path d="M14.5424 10.6361L12.6086 12.3895C12.8278 12.5699 13.0727 12.6602 13.3434 12.6473C13.6142 12.6344 13.872 12.5184 14.1041 12.3121C14.3877 12.0543 14.5295 11.7449 14.5295 11.3968L15.0194 11.4612C15.0194 11.6804 14.9807 11.8996 14.8776 12.1187C14.7745 12.325 14.6327 12.5313 14.4264 12.7118C14.1685 12.9438 13.9107 13.0856 13.6142 13.163C13.3305 13.2403 13.0469 13.2274 12.7633 13.1372C12.5054 13.0212 12.2605 12.8665 12.0542 12.6344C11.848 12.4023 11.7061 12.1445 11.6417 11.8738C11.5772 11.5901 11.5901 11.3194 11.6675 11.0487C11.7577 10.7779 11.9124 10.5459 12.1445 10.3396C12.3765 10.1333 12.6215 9.99152 12.8922 9.93995C13.1629 9.88838 13.4337 9.90128 13.7044 9.99152C13.9752 10.0818 14.2201 10.2494 14.4393 10.4943C14.4651 10.5201 14.5037 10.5717 14.5424 10.6361ZM12.1316 11.3581C12.1058 11.6159 12.1703 11.848 12.3379 12.0672L13.8591 10.6748C13.6528 10.4943 13.4208 10.4041 13.1629 10.4041C12.9051 10.4041 12.673 10.4943 12.4668 10.6877C12.2734 10.8811 12.1574 11.1002 12.1316 11.3581Z" fill="#961914"/>
<path d="M15.0839 7.28415C14.8647 7.24547 14.6842 7.11655 14.5424 6.88449L14.8776 6.67822C14.955 6.80714 15.071 6.88449 15.1999 6.89738C15.3288 6.92317 15.4707 6.89739 15.6125 6.80714C15.7543 6.7169 15.8445 6.61376 15.8832 6.48484C15.9219 6.35592 15.909 6.22699 15.8316 6.09807L16.1797 5.87891C16.3215 6.11096 16.3602 6.33013 16.2829 6.5493C16.2184 6.75557 16.0508 6.94895 15.8058 7.10366C15.5351 7.25837 15.3031 7.32283 15.0839 7.28415ZM14.7358 8.25106L15.2257 7.94165L16.4633 9.92704L16.9017 6.89738L17.3529 6.61376L19.0547 9.34689L18.5648 9.6563L17.3271 7.67091L16.8759 10.7006L16.4247 10.9842L14.7358 8.25106Z" fill="#961914"/>
<path d="M20.9498 7.02631L20.331 7.27126L20.8337 8.53469L20.2923 8.75386L19.1062 5.76288L19.6477 5.54372L20.1505 6.80715L20.7822 6.54931L21.2463 4.89911L21.8264 4.66705L21.2721 6.5622L23.1028 7.63224L22.4582 7.89009L20.9498 7.02631Z" fill="#961914"/>
<path d="M25.3718 4.12557C25.6425 4.29317 25.8359 4.57679 25.9261 5.00223L26.3387 6.89738L25.7972 7.01341L25.707 6.60086C25.6425 6.76846 25.5394 6.91027 25.3718 7.0263C25.2171 7.14233 25.0108 7.23257 24.7787 7.28414C24.4306 7.3615 24.1212 7.33571 23.8763 7.21968C23.6313 7.09076 23.4766 6.89738 23.4122 6.61375C23.3477 6.34302 23.3993 6.09807 23.5669 5.8789C23.7345 5.67263 24.031 5.51792 24.4693 5.41478L25.3718 5.2214L25.346 5.10537C25.2944 4.86042 25.1784 4.69282 25.0108 4.58969C24.8432 4.48655 24.6111 4.47366 24.3404 4.53812C24.1599 4.57679 23.9794 4.65415 23.8118 4.74439C23.6442 4.84753 23.5153 4.96356 23.4122 5.09248L23.077 4.71861C23.2059 4.55101 23.3864 4.4092 23.5927 4.29317C23.7989 4.17714 24.031 4.08689 24.2888 4.03532C24.7401 3.93219 25.101 3.95797 25.3718 4.12557ZM25.3202 6.54929C25.4491 6.42037 25.5394 6.25277 25.578 6.05939L25.4749 5.62106L24.5982 5.81444C24.1083 5.91758 23.915 6.13674 23.9794 6.45905C24.0181 6.61375 24.0954 6.72978 24.2502 6.79424C24.392 6.8587 24.5725 6.87159 24.7916 6.82003C25.0108 6.76846 25.1784 6.67821 25.3202 6.54929Z" fill="#961914"/>
<path d="M44.1943 30.2579C44.1041 30.1419 43.9751 30.0774 43.8333 30.0774C43.6786 30.0774 43.5239 30.0259 43.4079 29.9227C43.034 29.652 42.5828 29.536 42.0671 29.6004C42.2605 29.2523 42.3765 28.8527 42.3765 28.4401V28.4144C42.3765 28.1565 42.1702 27.9631 41.9124 27.9631C41.6546 27.9631 41.4612 28.1694 41.4612 28.4272V28.453C41.4612 28.9043 41.242 29.3297 40.8681 29.5875C40.5329 29.4328 40.1591 29.3426 39.7594 29.3555C39.3598 29.3684 38.9859 29.4457 38.6507 29.6133C38.2768 29.3684 38.0448 28.9429 38.0448 28.4917V28.4659C38.0448 28.2081 37.8385 28.0147 37.5806 28.0147C37.3228 28.0147 37.1294 28.221 37.1294 28.4788V28.5046C37.1294 28.9172 37.2454 29.3168 37.4517 29.652C36.9489 29.6004 36.4848 29.7165 36.1238 29.9872C35.9949 30.0903 35.8531 30.1419 35.6984 30.1419C35.5566 30.1419 35.4277 30.2193 35.3503 30.3224C35.273 30.4255 35.2343 30.5802 35.273 30.7092C35.3761 31.1088 35.5566 31.4311 35.7886 31.6761C35.144 31.805 34.4865 31.8695 33.829 31.8695L26.7384 31.9339H26.7255L24.4564 31.9597C22.3421 31.9726 20.6404 33.713 20.6533 35.8273L20.6791 39.4629C20.6791 39.7208 20.8853 39.9141 21.1432 39.9141C21.401 39.9141 21.5944 39.7079 21.5944 39.45L21.5686 35.8144C21.5557 34.435 22.5226 33.2618 23.8118 32.9524C23.7216 33.0297 23.6314 33.12 23.5411 33.1973C22.832 33.9193 22.4066 34.8604 22.3421 35.866C22.3421 35.8789 22.3421 35.9047 22.3421 35.9176C22.3421 36.0078 22.3292 36.0981 22.3292 36.1883L22.3421 37.0263C22.355 37.8772 22.6 38.7023 23.0512 39.4242C23.4766 40.0817 24.0568 40.6232 24.7401 40.9842L25.1913 42.4539L25.2171 45.7156C25.2171 46.1668 25.591 46.5278 26.0422 46.5278L29.6004 46.502C29.8969 46.502 30.1677 46.3473 30.3095 46.0895C30.4642 45.8316 30.4642 45.5222 30.3224 45.2644L30.0387 44.7358L30.013 41.964L33.7775 41.9253C33.8806 42.1316 34.0095 42.325 34.1642 42.5055L34.19 45.6383C34.19 46.0895 34.5639 46.4505 35.0151 46.4505L38.2768 46.4247C38.5733 46.4247 38.8441 46.27 38.9859 46.0121C39.1406 45.7543 39.1406 45.4449 38.9988 45.187L38.7152 44.6584L38.6894 42.3637C39.0117 42.0027 39.2824 41.5901 39.4887 41.1518C40.8552 40.3009 41.7706 38.7925 41.7964 37.065C42.441 36.7942 42.8922 36.1496 42.8793 35.4019V35.1956C42.8793 34.7186 42.6859 34.2932 42.3894 33.9838C42.4023 33.9451 42.4023 33.9064 42.4023 33.8806L42.3894 32.1402C42.4152 32.1402 42.4539 32.1402 42.4925 32.1402C42.7504 32.1402 43.0598 32.0886 43.3692 31.921C43.8204 31.6761 44.1298 31.2377 44.2846 30.6189C44.3103 30.5158 44.2846 30.374 44.1943 30.2579ZM41.4741 31.9468L41.487 33.4939C41.358 33.4681 41.2291 33.4552 41.0873 33.4552L38.5089 33.481C38.3671 33.481 38.2381 33.4939 38.1092 33.5325L38.0963 31.9855C38.0834 31.0572 38.8441 30.2837 39.7723 30.2837C40.7005 30.2708 41.4612 31.0186 41.4741 31.9468ZM36.6782 30.7092C36.9489 30.5029 37.3099 30.5287 37.5549 30.5931C37.4259 30.7994 37.3228 31.0315 37.2583 31.2764C37.1165 31.3022 36.8587 31.3151 36.6266 31.1991C36.5106 31.1346 36.4075 31.0444 36.3301 30.9154C36.459 30.8639 36.5751 30.7994 36.6782 30.7092ZM31.3408 33.1587C31.3408 32.9782 31.4827 32.8364 31.6632 32.8235L33.713 32.8106C34.3834 32.8106 34.9378 33.3649 34.9378 34.0353C34.9378 34.7186 34.3963 35.2859 33.713 35.2859L30.0645 35.3117C29.8196 35.3117 29.6133 35.1183 29.6133 34.8604C29.6133 34.6155 29.8067 34.4092 30.0645 34.4092H30.1032C30.7865 34.4092 31.3408 33.8419 31.3408 33.1587ZM23.7861 38.8699C23.4638 38.3284 23.2704 37.6967 23.2704 37.0392V36.3946L26.9188 36.3688C27.1638 36.3688 27.3701 36.5622 27.3701 36.82C27.3701 37.065 27.1767 37.2713 26.9188 37.2713H26.8802C26.1969 37.2713 25.6296 37.8385 25.6425 38.5347C25.6425 38.7152 25.5007 38.8699 25.3073 38.8699H23.7861ZM29.1879 45.0968L29.4586 45.5996L28.5304 45.6125C28.5175 45.5093 28.4917 45.4062 28.4272 45.3031L28.1436 44.7745L28.1178 42.4797C28.2596 42.325 28.3886 42.1574 28.5046 41.9898H29.0976L29.1234 44.8776C29.1234 44.955 29.1492 45.0323 29.1879 45.0968ZM37.8514 45.0194L38.1221 45.5222L37.1423 45.5351C37.1294 45.4062 37.0779 45.2773 37.0005 45.1612L36.8329 44.9034L36.8071 42.4023C36.9489 42.2347 37.0907 42.0671 37.2068 41.8995C37.4646 41.8866 37.7353 41.848 37.9803 41.7835C37.9545 41.8222 37.9158 41.848 37.8901 41.8866C37.7998 41.9769 37.7611 42.0929 37.7611 42.2089L37.7869 44.8003C37.7998 44.8776 37.8127 44.955 37.8514 45.0194ZM38.0577 39.1535V38.6249C38.0577 38.3671 37.8514 38.1737 37.5935 38.1737C37.3357 38.1737 37.1423 38.38 37.1423 38.6378V39.1664C37.1423 39.8755 36.9618 40.5588 36.6137 41.1647C36.5879 41.2034 36.5622 41.242 36.5364 41.2807C36.3946 41.4999 36.227 41.719 36.0336 41.9124C35.9433 42.0027 35.9047 42.1187 35.9047 42.2347L35.9305 45.0581C35.9305 45.1484 35.9562 45.2386 36.0078 45.316L36.1754 45.5609L35.1054 45.5738L35.0796 42.3508C35.0796 42.2218 35.028 42.1058 34.9378 42.0156C34.6412 41.7319 34.4607 41.3452 34.4607 40.9326L34.4479 40.0302C34.4479 39.7723 34.2416 39.5789 33.9837 39.5789C33.7259 39.5789 33.5325 39.7852 33.5325 40.0431L33.5454 40.9455C33.5454 40.9842 33.5454 41.0229 33.5454 41.0615L29.0203 41.1002C29.2523 40.5201 29.3812 39.9013 29.3684 39.2566V38.7281C29.3684 38.4702 29.1621 38.2768 28.9042 38.2768C28.6464 38.2768 28.453 38.4831 28.453 38.741V39.2695C28.4659 40.3009 28.0662 41.2807 27.3443 42.0156C27.254 42.1058 27.2154 42.2218 27.2154 42.3379L27.2411 44.9292C27.2411 45.0065 27.2669 45.0839 27.2927 45.1484L27.5635 45.6511L26.1324 45.664L26.1066 42.441C26.1066 42.4023 26.0938 42.3508 26.0809 42.3121L25.5652 40.5845C25.5265 40.4685 25.4363 40.3525 25.3202 40.3009C25.0366 40.172 24.7788 40.0044 24.5596 39.7981L25.3073 39.7852C25.9906 39.7852 26.5579 39.218 26.545 38.5218C26.545 38.3413 26.6868 38.1866 26.8802 38.1866H26.9188C27.6666 38.1737 28.2854 37.5678 28.2725 36.8071C28.2596 36.0594 27.6537 35.4406 26.8931 35.4535L23.3219 35.4792C23.4509 34.8733 23.7474 34.3061 24.1986 33.8548C24.8174 33.2231 25.6425 32.875 26.5321 32.8621L30.4642 32.8235C30.4384 32.9266 30.4255 33.0426 30.4255 33.1587C30.4255 33.3392 30.2837 33.4939 30.0903 33.4939H30.0516C29.3039 33.5068 28.6851 34.1127 28.698 34.8733C28.7109 35.6211 29.3168 36.2399 30.0774 36.227L33.7259 36.2012C34.912 36.1883 35.8789 35.2214 35.866 34.0224C35.866 33.5196 35.6855 33.0555 35.389 32.6817C35.9949 32.5914 36.6008 32.4625 37.181 32.282L37.1939 33.9451C37.1939 33.9838 37.1939 34.0224 37.2068 34.0482C36.9103 34.3705 36.7298 34.796 36.7298 35.273V35.4792C36.7427 36.4591 37.542 37.2584 38.5347 37.2455L40.881 37.2197C40.7908 39.0246 39.4758 40.5201 37.7482 40.8939C37.9545 40.3525 38.0705 39.7594 38.0577 39.1535ZM41.9769 35.4406C41.9769 35.9176 41.5901 36.3172 41.1131 36.3172L38.5347 36.343C38.0576 36.343 37.658 35.9563 37.658 35.4792V35.273C37.658 34.796 38.0448 34.3963 38.5218 34.3963L41.1002 34.3705C41.5772 34.3705 41.9769 34.7573 41.9769 35.2343V35.4406ZM42.9309 31.1475C42.6988 31.2764 42.441 31.2635 42.2992 31.2377C42.2347 30.9928 42.1187 30.7736 41.9898 30.5545C42.2347 30.49 42.5957 30.4513 42.8664 30.6576C42.9696 30.7349 43.0985 30.8123 43.2145 30.8639C43.1243 30.9799 43.034 31.083 42.9309 31.1475Z" fill="#961914"/>
<path d="M38.1866 31.7534C38.1866 32.0113 38.3929 32.2046 38.6507 32.2046H38.6636C38.9214 32.2046 39.1148 31.9984 39.1148 31.7405C39.1148 31.4827 38.9085 31.2893 38.6507 31.2893H38.6378C38.38 31.2893 38.1866 31.4956 38.1866 31.7534Z" fill="#961914"/>
<path d="M40.5587 32.1789C40.8166 32.1789 41.0228 31.9726 41.0228 31.7148C41.0228 31.4569 40.8166 31.2635 40.5587 31.2635H40.5458C40.288 31.2635 40.0946 31.4698 40.0946 31.7277C40.0946 31.9855 40.3009 32.1918 40.5587 32.1789Z" fill="#961914"/>
<path d="M38.7409 34.9636C38.4831 34.9636 38.2768 35.1699 38.2768 35.4277C38.2768 35.6855 38.4831 35.8789 38.7409 35.8789H38.7538C39.0116 35.8789 39.205 35.6727 39.205 35.4148C39.205 35.157 38.9988 34.9507 38.7409 34.9636Z" fill="#961914"/>
<path d="M40.6619 34.9378C40.404 34.9378 40.1978 35.1441 40.1978 35.4019C40.1978 35.6598 40.404 35.8532 40.6619 35.8532H40.6748C40.9326 35.8532 41.126 35.6469 41.126 35.389C41.1131 35.1441 40.9068 34.9378 40.6619 34.9378Z" fill="#961914"/>
<path d="M21.0529 40.8295C20.9369 40.8295 20.8209 40.881 20.7306 40.9713C20.6404 41.0615 20.6017 41.1776 20.6017 41.2936C20.6017 41.4096 20.6533 41.5256 20.7435 41.6159C20.8337 41.7061 20.9498 41.7448 21.0658 41.7448C21.1818 41.7448 21.2979 41.6932 21.3881 41.603C21.4784 41.5128 21.517 41.3967 21.517 41.2807C21.517 41.1647 21.4655 41.0486 21.3752 40.9584C21.285 40.881 21.1689 40.8295 21.0529 40.8295Z" fill="#961914"/>
<path d="M22.1358 24.0697C22.7031 23.8634 23.786 23.6829 24.9721 23.8634C26.4418 24.0826 27.6666 24.7917 28.5174 25.9133C28.5948 26.0164 28.6206 26.1582 28.569 26.2743C28.5174 26.3903 28.4014 26.4805 28.2725 26.4934C28.2596 26.4934 27.2669 26.6224 26.1582 26.8802L26.4418 27.6279C26.5192 27.8213 26.416 28.0276 26.2226 28.1049C26.184 28.1178 26.1453 28.1307 26.1066 28.1307C25.9519 28.1307 25.7843 28.0405 25.7327 27.8858L25.4233 27.0865C25.2686 27.1251 25.1139 27.1767 24.9592 27.2283C24.9463 27.2283 24.9463 27.2283 24.9334 27.2283L25.2428 28.0018C25.3202 28.1952 25.2171 28.4015 25.0237 28.4788C24.985 28.4917 24.9463 28.5046 24.9076 28.5046C24.7529 28.5046 24.5982 28.4144 24.5338 28.2597L24.2244 27.4861C24.1341 27.5119 24.0439 27.5506 23.9536 27.5764C23.3993 27.7698 22.9867 27.9116 22.716 27.9502C22.7031 27.9502 22.6902 27.9502 22.6902 27.9502C22.4968 27.9631 22.3163 27.8084 22.2905 27.615C22.2648 27.4088 22.4066 27.2283 22.6128 27.2025C22.7933 27.1767 23.2317 27.0349 23.6829 26.8673C23.8763 26.8028 24.0825 26.7255 24.3017 26.6481C24.4306 26.6095 24.5596 26.5579 24.7014 26.5192C24.9592 26.4419 25.2428 26.3516 25.5394 26.2743C26.2742 26.0809 26.9962 25.952 27.4861 25.8746C25.707 24.1084 23.077 24.5467 22.4066 24.7917C21.878 24.985 21.0142 25.4363 21.1302 26.3C21.156 26.5063 21.0142 26.6868 20.8079 26.7126C20.6017 26.7384 20.4083 26.5837 20.3825 26.3903C20.2536 25.3589 20.8853 24.5209 22.1358 24.0697Z" fill="#961914"/>
<path d="M18.9773 20.692C18.655 21.646 17.7139 24.6499 18.049 26.8544C18.049 26.8673 18.049 26.8802 18.049 26.8802C18.178 27.9502 18.887 28.93 20.0602 29.6262C20.8466 30.0903 21.7749 30.3998 22.7805 30.5416L22.8707 32.1273C22.8707 32.1273 22.9094 32.398 22.9223 32.5914C22.9352 32.7977 22.8449 32.8879 23.0512 32.8879L26.1066 32.759C26.3129 32.7461 26.4805 32.5785 26.4676 32.3723C26.4547 32.166 26.2742 32.0113 26.068 32.0113L25.2429 32.0371L25.1526 30.5158C26.0293 30.3869 26.8544 30.129 27.5634 29.7551C27.976 30.3353 28.569 30.7994 29.2394 31.0701C29.7293 31.2635 30.2579 31.3538 30.7865 31.3409C31.083 31.328 31.3795 31.2893 31.6631 31.212C32.2175 31.0573 32.6043 30.7607 32.7848 30.3869C32.9524 30.4126 33.1328 30.4255 33.3004 30.4255C34.306 30.3869 35.2085 29.7294 35.4792 28.7238C35.621 28.1565 35.5566 27.5635 35.2729 27.0478C35.0924 26.7255 34.8475 26.4419 34.5381 26.2356C35.1956 25.6039 35.4276 24.6241 35.0538 23.7474C34.7057 22.9094 33.9064 22.3422 33.0297 22.2519C33.1328 21.8909 33.1457 21.4913 33.0426 21.1045C32.9008 20.4986 32.5269 19.9829 31.9983 19.6477C31.4569 19.2996 30.8252 19.1836 30.1934 19.3125C29.5746 19.4414 29.046 19.7895 28.6979 20.3052C28.3756 20.7951 27.8471 22.0328 27.499 23.193C26.416 22.6516 25.0882 22.368 23.7216 22.4195C23.2059 22.4324 22.7031 22.4969 22.2132 22.6C22.3163 21.646 22.5226 19.6735 22.6386 18.9129C22.8965 17.2111 22.7031 16.0508 22.0456 15.3804C21.5686 14.8776 20.8466 14.6713 19.9313 14.7487C17.6365 14.9421 17.3915 18.3456 17.3787 18.4874C17.3658 18.6292 17.4431 18.7582 17.572 18.8355C17.701 18.9129 17.8428 18.9129 17.9717 18.8355C18.2811 18.655 18.5389 18.5777 18.7452 18.6034C18.655 18.9644 18.5389 19.4801 18.5261 19.6219C18.5003 20.0345 18.6679 20.447 18.9773 20.692ZM29.5102 28.0018C29.8196 27.4603 29.9614 26.8931 29.9227 26.3001C29.8582 25.2558 29.2523 24.2889 28.1952 23.5669C28.5432 22.3551 29.0847 21.1045 29.3683 20.6791C29.6004 20.331 29.9614 20.086 30.3868 19.9958C30.8123 19.9056 31.2506 19.9958 31.6116 20.2279C32.3593 20.7049 32.5914 21.6718 32.1401 22.3937C32.0628 22.5227 32.0628 22.6774 32.153 22.7934C32.2433 22.9094 32.3851 22.9739 32.5398 22.9481C33.3133 22.8192 34.074 23.2317 34.3705 23.9537C34.667 24.6885 34.3705 25.5394 33.6614 25.9004C33.5325 25.9649 33.4551 26.1067 33.468 26.2485C33.4809 26.3903 33.5841 26.5192 33.7259 26.5708C34.5252 26.8673 34.9635 27.6795 34.7572 28.4788C34.5381 29.3168 33.6485 29.8067 32.7848 29.5747C32.7461 29.5618 32.7074 29.5489 32.6687 29.536C32.0112 29.3813 30.5931 28.7238 29.5102 28.0018ZM28.2209 29.3684C28.5561 29.1363 28.8398 28.8785 29.0847 28.6077C30.0645 29.2524 31.2764 29.8454 32.0628 30.1548C31.9339 30.3224 31.676 30.4384 31.4569 30.5029C30.8251 30.6705 30.1548 30.6318 29.5359 30.3998C29.0074 30.1806 28.5432 29.8196 28.2209 29.3684ZM23.6442 32.1015L23.554 30.606C23.7732 30.6189 24.0052 30.6189 24.2244 30.606C24.2888 30.606 24.3533 30.606 24.4178 30.5931L24.508 32.0628L23.6442 32.1015ZM18.7968 26.6739C18.7194 25.3074 19.97 24.0053 21.9167 23.438C22.5097 23.2704 23.1285 23.1673 23.786 23.1415C25.1913 23.0899 26.5321 23.4122 27.5505 24.0439C28.5304 24.6499 29.1105 25.4621 29.1621 26.3258C29.1878 26.8673 29.0331 27.383 28.6722 27.8729C28.3885 28.2726 27.9889 28.6335 27.4861 28.9301C26.5836 29.4844 25.4105 29.8067 24.1728 29.8454C23.8247 29.8583 23.4895 29.8454 23.1543 29.8196C22.1487 29.7294 21.2076 29.4328 20.447 28.9816C19.4672 28.4015 18.887 27.6151 18.7968 26.7642C18.8097 26.7384 18.7968 26.7126 18.7968 26.6739ZM19.7121 20.924C20.2536 20.8982 20.7048 20.4599 20.7693 19.8669C20.7822 19.6735 20.7435 18.7582 20.7177 18.4745C20.7048 18.2683 20.5243 18.1135 20.3181 18.1135C20.1118 18.1264 19.9442 18.294 19.9571 18.5003C19.9829 19.0418 20.0087 19.6864 20.0087 19.7895C19.9829 20.0216 19.8024 20.215 19.609 20.1892C19.5961 20.1892 19.5703 20.1892 19.5574 20.1763C19.3898 20.1247 19.2738 19.9184 19.2996 19.6993C19.3125 19.5961 19.4543 19.0031 19.5703 18.4874C19.5703 18.4745 19.5703 18.4616 19.5703 18.4616V18.4487C19.5703 18.4359 19.5703 18.4359 19.5703 18.423C19.5703 18.4101 19.5703 18.4101 19.5703 18.3972V18.3843C19.5703 18.3714 19.5703 18.3714 19.5703 18.3585V18.3456C19.5703 18.3327 19.5703 18.3327 19.5703 18.3198V18.3069C19.5703 18.294 19.5703 18.294 19.5703 18.294V18.2811C19.5703 18.2811 19.5703 18.2683 19.5574 18.2683C19.5574 18.2683 19.5574 18.2554 19.5445 18.2554C19.5445 18.2554 19.5445 18.2425 19.5316 18.2425C19.5316 18.2296 19.5187 18.2296 19.5187 18.2167C19.5187 18.2167 19.5187 18.2038 19.5059 18.2038L19.493 18.1909C19.493 18.1909 19.493 18.178 19.4801 18.178L19.4672 18.1651L19.4543 18.1522L19.4414 18.1393C19.4285 18.1264 19.4285 18.1264 19.4156 18.1135C19.2093 17.9588 18.8097 17.7655 18.2424 17.9073C18.41 17.0435 18.8612 15.5867 20.0215 15.4836C20.7048 15.4191 21.1947 15.548 21.5041 15.8832C21.9811 16.3731 22.1101 17.3529 21.8909 18.7968C21.762 19.6735 21.517 22.0585 21.4397 22.8321C20.4599 23.1544 19.6219 23.6572 19.016 24.2889C18.9515 24.3533 18.8999 24.4178 18.8355 24.4823C19.0417 22.961 19.5059 21.5042 19.7121 20.924Z" fill="#961914"/>
<path d="M20.1763 16.5407C20.6662 16.5278 20.7048 17.2627 20.2149 17.2755C19.7379 17.2884 19.6864 16.5536 20.1763 16.5407Z" fill="#961914"/>
<path d="M30.49 21.1819C30.9799 21.169 31.0186 21.9038 30.5287 21.9167C30.0516 21.9425 30.0001 21.1948 30.49 21.1819Z" fill="#961914"/>
<path d="M33.0426 24.1342C33.5325 24.1213 33.5712 24.8562 33.0813 24.8691C32.6043 24.8948 32.5656 24.1471 33.0426 24.1342Z" fill="#961914"/>
<path d="M33.597 27.8987C34.0869 27.8858 34.1255 28.6206 33.6356 28.6335C33.1586 28.6464 33.1071 27.9116 33.597 27.8987Z" fill="#961914"/>
<path d="M21.3752 26.9447C21.8651 26.9318 21.9038 27.6666 21.4139 27.6795C20.924 27.6924 20.8853 26.9576 21.3752 26.9447Z" fill="#961914"/>
</g>
<defs>
<clipPath id="clip0_177_119">
<rect width="60" height="60" fill="white"/>
</clipPath>
</defs>
</svg>
