<svg width="60" height="60" viewBox="0 0 60 60" fill="none" xmlns="http://www.w3.org/2000/svg">
<g clip-path="url(#clip0_177_26)">
<path d="M29.9995 59.9868C46.561 59.9868 59.9868 46.5611 59.9868 29.9996C59.9868 13.4381 46.561 0.0123901 29.9995 0.0123901C13.4381 0.0123901 0.0123177 13.4381 0.0123177 29.9996C0.0123177 46.5611 13.4381 59.9868 29.9995 59.9868Z" fill="#C3D6EA"/>
<path d="M30 50.4772C41.3093 50.4772 50.4772 41.3093 50.4772 30C50.4772 18.6908 41.3093 9.52283 30 9.52283C18.6908 9.52283 9.52279 18.6908 9.52279 30C9.52279 41.3093 18.6908 50.4772 30 50.4772Z" stroke="#961914" stroke-width="0.5" stroke-miterlimit="10"/>
<path d="M32.7865 2.51819L35.9565 3.0167L35.8798 3.52799L33.3106 3.11896L33.1061 4.32049L34.4099 4.52501C34.9084 4.6017 35.2663 4.76787 35.4964 5.02351C35.7265 5.26638 35.8032 5.58593 35.7392 5.98218C35.6753 6.39122 35.4836 6.68521 35.164 6.86416C34.8445 7.04311 34.4227 7.08146 33.8986 7.00477L32.0963 6.72356L32.7865 2.51819ZM33.9753 6.53182C34.3204 6.58295 34.5888 6.55739 34.7934 6.45513C34.9979 6.35287 35.1129 6.17392 35.1513 5.91827C35.228 5.40698 34.9212 5.10021 34.2182 4.98517L33.0422 4.79343L32.7993 6.32731L33.9753 6.53182Z" fill="#961914"/>
<path d="M39.6378 5.56036C39.7912 5.84157 39.7912 6.18669 39.6506 6.59572L39.0115 8.42359L38.4874 8.24464L38.628 7.84839C38.4874 7.96343 38.3213 8.01456 38.1167 8.04012C37.925 8.0529 37.7077 8.02734 37.4776 7.93786C37.1453 7.82282 36.8896 7.64387 36.749 7.40101C36.5957 7.17093 36.5701 6.91528 36.6723 6.64685C36.7618 6.37842 36.9408 6.19947 37.1964 6.11C37.4521 6.02052 37.7844 6.04609 38.2062 6.18669L39.0754 6.49346L39.1138 6.39121C39.1905 6.14834 39.1905 5.94383 39.101 5.77766C39.0115 5.59871 38.8325 5.47088 38.5641 5.38141C38.3852 5.3175 38.1934 5.27915 38.0017 5.27915C37.81 5.27915 37.631 5.30471 37.4776 5.36862L37.3882 4.8829C37.5927 4.8062 37.81 4.78064 38.0528 4.79342C38.2957 4.8062 38.5386 4.84455 38.7814 4.93403C39.2032 5.06185 39.4844 5.27915 39.6378 5.56036ZM38.3085 7.59274C38.5002 7.55439 38.6536 7.45214 38.7814 7.31153L38.9348 6.88972L38.0912 6.59572C37.631 6.42955 37.337 6.50625 37.2348 6.8258C37.1836 6.97919 37.1964 7.1198 37.2859 7.24762C37.3754 7.37544 37.516 7.4777 37.7333 7.55439C37.925 7.6183 38.1295 7.63109 38.3085 7.59274Z" fill="#961914"/>
<path d="M43.8816 7.52883C44.0349 7.77169 44.0989 8.02734 44.0989 8.32133C44.0989 8.60254 44.0222 8.88375 43.856 9.16496C43.6898 9.44617 43.4981 9.66347 43.2552 9.81685C43.0124 9.97024 42.7439 10.0342 42.4627 10.0342C42.1815 10.0342 41.9003 9.95746 41.6319 9.80407C41.4274 9.68903 41.274 9.54843 41.1461 9.38226C41.0183 9.21609 40.9416 9.01157 40.9033 8.80705L40.0852 10.2515L39.5739 9.97024L41.7213 6.13556L42.2071 6.40399L41.9642 6.85137C42.1687 6.76189 42.3732 6.72354 42.5905 6.73633C42.8078 6.74911 43.0251 6.8258 43.2297 6.94084C43.5236 7.09423 43.7282 7.29875 43.8816 7.52883ZM42.4116 9.48451C42.6033 9.48451 42.7823 9.43339 42.9484 9.33113C43.1146 9.22887 43.2552 9.07548 43.3575 8.88375C43.4597 8.69201 43.5236 8.50028 43.5236 8.29576C43.5236 8.09125 43.4725 7.92508 43.383 7.75891C43.2808 7.59274 43.1402 7.46492 42.9612 7.36266C42.7823 7.2604 42.6033 7.20927 42.4116 7.22205C42.2199 7.23483 42.0409 7.27318 41.8747 7.37544C41.7086 7.4777 41.568 7.6183 41.4657 7.82282C41.3634 8.01455 41.2995 8.20629 41.2995 8.4108C41.2995 8.60254 41.3507 8.78149 41.4401 8.94766C41.5424 9.11383 41.6702 9.24165 41.8492 9.34391C42.0281 9.43339 42.2199 9.48451 42.4116 9.48451Z" fill="#961914"/>
<path d="M47.4734 10.3409C47.5117 10.6605 47.3967 10.9928 47.1282 11.3252L45.8884 12.8207L45.4666 12.4756L45.735 12.1432C45.5688 12.1944 45.3899 12.1944 45.1981 12.1432C45.0064 12.0921 44.8147 11.9899 44.6229 11.8237C44.3417 11.5936 44.1755 11.338 44.1244 11.0695C44.0733 10.8011 44.1244 10.5582 44.3034 10.3282C44.4823 10.1109 44.7124 9.99582 44.9808 9.99582C45.2493 9.99582 45.556 10.1364 45.9011 10.4176L46.617 11.0056L46.6937 10.9161C46.847 10.7244 46.9237 10.5327 46.8854 10.3282C46.847 10.1236 46.732 9.94469 46.5147 9.76574C46.3613 9.6507 46.2079 9.54844 46.029 9.48453C45.85 9.42062 45.6711 9.38227 45.5177 9.38227L45.6072 8.89655C45.8245 8.89655 46.0418 8.94767 46.2591 9.03715C46.4764 9.12663 46.6937 9.25445 46.8982 9.42062C47.2305 9.72739 47.4222 10.0214 47.4734 10.3409ZM45.5177 11.7981C45.7094 11.8237 45.8884 11.7853 46.0545 11.6959L46.3357 11.3507L45.6455 10.7755C45.262 10.456 44.968 10.4304 44.7635 10.6861C44.6613 10.8139 44.6229 10.9545 44.6613 11.1079C44.6996 11.2613 44.8019 11.4019 44.9808 11.5425C45.1598 11.6831 45.3387 11.7726 45.5177 11.7981Z" fill="#961914"/>
<path d="M49.2757 11.6447L49.6591 12.0921L48.6238 12.9741L49.8125 14.3673L50.8479 13.4854L51.2314 13.9327L48.7899 16.0163L48.4065 15.5689L49.4291 14.6997L48.2403 13.3064L47.2177 14.1756L46.8343 13.7282L49.2757 11.6447Z" fill="#961914"/>
<path d="M52.369 15.5561L52.663 16.0674L50.6306 17.2306L53.6472 17.793L53.9029 18.2532L51.1035 19.8382L50.8223 19.3269L52.8547 18.1637L49.8509 17.614L49.5824 17.1539L52.369 15.5561Z" fill="#961914"/>
<path d="M54.6954 20.0043L54.8871 20.554L53.5961 21.0014L54.1969 22.7397L55.4879 22.2924L55.6796 22.842L52.6374 23.8901L52.4457 23.3405L53.7239 22.9059L53.1359 21.1675L51.8577 21.6021L51.666 21.0525L54.6954 20.0043Z" fill="#961914"/>
<path d="M56.1525 26.9579C55.9736 27.2263 55.6668 27.3925 55.245 27.4564L53.3277 27.7504L53.2382 27.2007L53.66 27.1368C53.4938 27.0601 53.366 26.9451 53.251 26.7789C53.1487 26.6128 53.072 26.4082 53.0337 26.1654C52.9825 25.8075 53.0209 25.5135 53.1615 25.2706C53.3021 25.0278 53.5066 24.8872 53.7878 24.8488C54.069 24.8105 54.3119 24.8744 54.5164 25.0533C54.7209 25.2323 54.8487 25.539 54.9254 25.9864L55.066 26.894L55.1811 26.8812C55.4239 26.8428 55.6029 26.7406 55.7179 26.5744C55.8202 26.4082 55.8585 26.1909 55.8202 25.9097C55.7946 25.718 55.7307 25.539 55.6412 25.3729C55.5518 25.2067 55.4495 25.0661 55.3217 24.9511L55.7179 24.6443C55.8713 24.7849 56.0119 24.9638 56.1142 25.1811C56.2165 25.3984 56.2931 25.6285 56.3315 25.8842C56.3954 26.3315 56.3315 26.6895 56.1525 26.9579ZM53.7367 26.7406C53.8645 26.8812 54.0179 26.9834 54.2096 27.0218L54.657 26.9579L54.5164 26.0759C54.4397 25.5902 54.2352 25.3729 53.9156 25.424C53.7623 25.4496 53.6344 25.5263 53.5705 25.6669C53.4938 25.8075 53.481 25.9864 53.5066 26.2037C53.5322 26.421 53.6216 26.6 53.7367 26.7406Z" fill="#961914"/>
<path d="M58.4022 32.6205L58.3639 33.1445L52.7908 30.7798L52.8291 30.2557L58.4022 32.6205Z" fill="#961914"/>
<path d="M54.1713 37.401L54.4269 36.5574L52.6374 36.0205L52.8036 35.4453L56.8811 36.6468L56.715 37.222L54.951 36.698L54.6954 37.5544L56.0886 39.3567L55.9097 39.983L54.363 37.9506L51.8066 38.8582L51.9983 38.1935L54.1713 37.401Z" fill="#961914"/>
<path d="M52.8803 43.3192C52.6374 43.4726 52.3818 43.5493 52.1006 43.5621C51.8193 43.5749 51.5381 43.4982 51.2441 43.3448C50.9629 43.1914 50.7328 42.9997 50.5795 42.7568C50.4261 42.5139 50.3494 42.2583 50.3366 41.9771C50.3366 41.6959 50.4005 41.4147 50.5411 41.1462C50.6434 40.9417 50.784 40.7755 50.9501 40.6477C51.1163 40.5199 51.3081 40.4432 51.5254 40.3921L50.0554 39.6124L50.3238 39.1011L54.2096 41.159L53.954 41.6575L53.5066 41.4147C53.6089 41.6064 53.6472 41.8237 53.6344 42.041C53.6216 42.2583 53.5577 42.4756 53.4427 42.6801C53.3021 42.9485 53.1104 43.1658 52.8803 43.3192ZM50.8862 41.8876C50.899 42.0793 50.9501 42.2583 51.0524 42.4245C51.1547 42.5906 51.3081 42.7185 51.5126 42.8207C51.7043 42.923 51.9088 42.9741 52.1006 42.9741C52.2923 42.9741 52.4712 42.923 52.6374 42.8207C52.7908 42.7185 52.9186 42.5778 53.0209 42.3989C53.1104 42.2199 53.1615 42.041 53.1487 41.8493C53.1359 41.6575 53.0848 41.4786 52.9825 41.3252C52.8803 41.159 52.7269 41.0312 52.5351 40.9289C52.3434 40.8267 52.1389 40.7755 51.9472 40.7755C51.7554 40.7755 51.5765 40.8267 51.4103 40.9289C51.2441 41.0312 51.1163 41.1718 51.0268 41.3507C50.9246 41.5169 50.8862 41.7087 50.8862 41.8876Z" fill="#961914"/>
<path d="M49.02 43.9839C49.2885 43.8688 49.5697 43.8433 49.8509 43.8816C50.1321 43.92 50.4005 44.0478 50.6434 44.2395C50.8862 44.4312 51.0652 44.6613 51.1674 44.9298C51.2697 45.1982 51.308 45.4794 51.2569 45.7606C51.2058 46.0418 51.0908 46.3102 50.8862 46.5659C50.6945 46.8215 50.4516 47.0005 50.196 47.1155C49.9276 47.2306 49.6591 47.2561 49.3651 47.2178C49.0839 47.1794 48.8155 47.0516 48.5726 46.8599C48.3298 46.6681 48.1508 46.4381 48.0486 46.1696C47.9463 45.9012 47.908 45.62 47.9591 45.3388C48.0102 45.0576 48.1253 44.7892 48.3298 44.5335C48.5215 44.2779 48.7516 44.0989 49.02 43.9839ZM48.4832 45.3644C48.4576 45.5561 48.4832 45.735 48.5599 45.914C48.6366 46.0929 48.7644 46.2463 48.9305 46.3869C49.0967 46.5275 49.2885 46.617 49.4802 46.6426C49.6719 46.6681 49.8509 46.6554 50.0298 46.5915C50.2088 46.5148 50.3494 46.3997 50.4772 46.2463C50.605 46.0802 50.6817 45.914 50.7073 45.7223C50.7328 45.5305 50.7201 45.3516 50.6434 45.1726C50.5667 44.9937 50.4389 44.8275 50.2727 44.6997C50.0937 44.5591 49.9148 44.4696 49.7231 44.444C49.5313 44.4185 49.3396 44.4312 49.1734 44.4952C48.9945 44.5591 48.8411 44.6741 48.7133 44.8403C48.5982 45.0065 48.5087 45.1854 48.4832 45.3644Z" fill="#961914"/>
<path d="M46.617 50.8479L44.4823 48.4449L44.9169 48.0614L46.7064 50.0938L47.7418 49.1735L47.2944 48.611C47.026 48.2787 46.8087 47.9719 46.6681 47.7291C46.5147 47.4734 46.438 47.2433 46.4124 47.026C46.3997 46.8087 46.4764 46.6298 46.6425 46.4764C46.7192 46.4125 46.8215 46.3358 46.9493 46.2847L47.2433 46.6809C47.1922 46.7065 47.1538 46.7321 47.1155 46.7576C46.9876 46.8599 46.9493 47.0005 46.9876 47.1539C47.026 47.3073 47.0899 47.4734 47.2049 47.6396C47.32 47.8058 47.4862 48.0231 47.7034 48.3043L48.4448 49.2374L46.617 50.8479Z" fill="#961914"/>
<path d="M45.0575 52.0239L44.559 52.3179L43.3575 50.3111L42.8718 53.3277L42.4244 53.5962L40.7755 50.8352L41.274 50.5412L42.4755 52.548L42.9612 49.5314L43.4214 49.2502L45.0575 52.0239Z" fill="#961914"/>
<path d="M38.807 53.1488L39.4333 52.9059L38.9476 51.6405L39.4845 51.436L40.6349 54.4398L40.0852 54.6443L39.5995 53.3789L38.9604 53.6217L38.4747 55.2579L37.8867 55.4752L38.4747 53.5962L36.6596 52.4969L37.2987 52.254L38.807 53.1488Z" fill="#961914"/>
<path d="M27.239 57.5587L24.069 57.0474L24.1585 56.5361L26.7277 56.9451L26.9195 55.7436L25.6157 55.5391C25.1172 55.4624 24.7593 55.2962 24.5292 55.0406C24.2991 54.7977 24.2224 54.4654 24.2863 54.0819C24.3502 53.6729 24.542 53.3789 24.8615 53.1999C25.1811 53.021 25.6029 52.9826 26.1142 53.0593L27.9165 53.3405L27.239 57.5587ZM26.0631 53.545C25.7179 53.4939 25.4495 53.5195 25.245 53.6217C25.0405 53.724 24.9254 53.9029 24.8871 54.1586C24.8104 54.6699 25.1172 54.9766 25.8202 55.0917L26.9962 55.2834L27.239 53.7495L26.0631 53.545Z" fill="#961914"/>
<path d="M20.4005 54.5037C20.2471 54.2225 20.2471 53.8774 20.3877 53.4684L21.0268 51.6405L21.5509 51.8195L21.4103 52.2157C21.5509 52.1007 21.7171 52.0495 21.9216 52.024C22.1133 52.0112 22.3306 52.0368 22.5607 52.1262C22.9058 52.2413 23.1487 52.4202 23.2893 52.6631C23.4299 52.8932 23.4555 53.1488 23.366 53.4172C23.2765 53.6857 23.0976 53.8646 22.8419 53.9541C22.5863 54.0436 22.2539 54.018 21.8321 53.8774L20.9629 53.5706L20.9246 53.6857C20.8479 53.9157 20.8479 54.133 20.9374 54.2992C21.0268 54.4782 21.2058 54.606 21.4742 54.6955C21.6532 54.7594 21.8449 54.7849 22.0366 54.7977C22.2284 54.7977 22.4073 54.7722 22.5607 54.7082L22.6502 55.2068C22.4457 55.2707 22.2284 55.309 21.9855 55.2962C21.7427 55.2834 21.4998 55.2451 21.2569 55.1556C20.8351 55.0022 20.5411 54.7849 20.4005 54.5037ZM21.7299 52.4713C21.5509 52.5097 21.3847 52.5992 21.2569 52.7526L21.1035 53.1744L21.9472 53.4684C22.4073 53.6345 22.7013 53.5578 22.8036 53.2511C22.8547 53.0977 22.8419 52.9571 22.7524 52.8293C22.663 52.7014 22.5224 52.5992 22.3051 52.5225C22.1133 52.4458 21.9088 52.433 21.7299 52.4713Z" fill="#961914"/>
<path d="M16.1568 52.5224C16.0034 52.2796 15.9395 52.0239 15.9395 51.7299C15.9395 51.4359 16.0162 51.1675 16.1824 50.8863C16.3357 50.6051 16.5403 50.3878 16.7831 50.2344C17.026 50.081 17.2944 50.0171 17.5756 50.0171C17.8568 50.0171 18.138 50.0938 18.4065 50.2472C18.611 50.3622 18.7644 50.5028 18.8922 50.669C19.02 50.8352 19.0967 51.0397 19.1223 51.2442L19.9403 49.7998L20.4516 50.081L18.2914 53.9029L17.8057 53.6345L18.0614 53.1871C17.8568 53.2766 17.6523 53.3149 17.435 53.2894C17.2177 53.2766 17.0004 53.1999 16.7959 53.0849C16.5147 52.957 16.2974 52.7653 16.1568 52.5224ZM17.6395 50.5795C17.4478 50.5795 17.2689 50.6307 17.1027 50.7329C16.9365 50.8352 16.7959 50.9886 16.6936 51.1803C16.5786 51.372 16.5275 51.5638 16.5275 51.7683C16.5275 51.96 16.5786 52.139 16.6681 52.3051C16.7703 52.4713 16.8982 52.5991 17.0771 52.7014C17.2561 52.8036 17.435 52.8548 17.6268 52.842C17.8185 52.8292 17.9974 52.7909 18.1636 52.6886C18.3298 52.5863 18.4704 52.4457 18.5726 52.2412C18.6877 52.0495 18.7388 51.8578 18.7388 51.6532C18.7388 51.4615 18.7005 51.2826 18.5982 51.1164C18.496 50.9502 18.3681 50.8224 18.1892 50.7201C18.0102 50.6179 17.8185 50.5667 17.6395 50.5795Z" fill="#961914"/>
<path d="M12.5778 49.7104C12.5394 49.3908 12.6545 49.0585 12.9229 48.7261L14.1628 47.2306L14.5846 47.5885L14.3161 47.9208C14.4823 47.8697 14.6613 47.8697 14.853 47.9208C15.0447 47.972 15.2237 48.0742 15.4154 48.2404C15.6966 48.4705 15.8628 48.7261 15.9139 48.9945C15.9651 49.263 15.9139 49.5186 15.7222 49.7359C15.5432 49.9532 15.3132 50.0683 15.0447 50.0683C14.7763 50.0683 14.4695 49.9277 14.1244 49.6464L13.4086 49.0585L13.3319 49.1479C13.1785 49.3397 13.1018 49.5314 13.1274 49.7359C13.153 49.9277 13.2808 50.1194 13.4981 50.2983C13.6515 50.4134 13.8049 50.5156 13.9838 50.5795C14.1628 50.6435 14.3417 50.6818 14.4951 50.6818L14.4056 51.1675C14.1883 51.1675 13.971 51.1164 13.7537 51.0269C13.5364 50.9375 13.3191 50.8096 13.1146 50.6435C12.8078 50.3239 12.6161 50.0299 12.5778 49.7104ZM14.5207 48.2532C14.3289 48.2276 14.15 48.2532 13.9838 48.3554L13.7026 48.7006L14.3928 49.2758C14.7763 49.5953 15.0703 49.6209 15.2748 49.3652C15.3771 49.2374 15.4154 49.0968 15.3771 48.9562C15.3387 48.8156 15.2365 48.6622 15.0575 48.5216C14.8914 48.3682 14.7124 48.2915 14.5207 48.2532Z" fill="#961914"/>
<path d="M10.7627 48.4066L10.3792 47.9592L11.4146 47.0772L10.2258 45.6839L9.20324 46.5659L8.81977 46.1185L11.274 44.035L11.6447 44.4824L10.6221 45.3516L11.8108 46.7449L12.8334 45.8757L13.2169 46.3231L10.7627 48.4066Z" fill="#961914"/>
<path d="M7.69493 44.5208L7.40094 44.0095L9.43332 42.8463L6.4167 42.2967L6.16106 41.8365L8.96038 40.2387L9.24159 40.75L7.2092 41.9132L10.2258 42.4628L10.4942 42.923L7.69493 44.5208Z" fill="#961914"/>
<path d="M5.36856 40.0342L5.17682 39.4845L6.46783 39.0371L5.87985 37.3115L4.58884 37.7461L4.3971 37.1965L7.43928 36.1611L7.63102 36.7108L6.35279 37.1454L6.94077 38.8838L8.219 38.4492L8.41074 38.9988L5.36856 40.0342Z" fill="#961914"/>
<path d="M3.91137 33.1189C4.09032 32.8505 4.3971 32.6843 4.81891 32.6204L6.73626 32.3264L6.82573 32.8761L6.40392 32.94C6.57009 33.0167 6.69791 33.1317 6.81295 33.2979C6.91521 33.464 6.9919 33.6686 7.03025 33.9114C7.08138 34.2693 7.04303 34.5633 6.90243 34.8062C6.76182 35.049 6.5573 35.1896 6.27609 35.228C5.99488 35.2663 5.75202 35.2024 5.5475 35.0235C5.34299 34.8445 5.21517 34.5378 5.13847 34.0904L4.99787 33.1828L4.88283 33.1956C4.63996 33.234 4.46101 33.3362 4.35875 33.5024C4.25649 33.6686 4.21815 33.8859 4.25649 34.1671C4.28206 34.3588 4.34597 34.5378 4.43545 34.7039C4.52492 34.8701 4.62718 35.0107 4.755 35.1257L4.35875 35.4325C4.20537 35.2919 4.06476 35.113 3.9625 34.8957C3.86024 34.6784 3.78355 34.4483 3.7452 34.1926C3.68129 33.7452 3.73242 33.3873 3.91137 33.1189ZM6.34001 33.3362C6.21218 33.1956 6.0588 33.0934 5.86706 33.055L5.41968 33.1189L5.56029 34.0009C5.63698 34.4866 5.8415 34.7039 6.16105 34.6528C6.32722 34.6272 6.44226 34.5505 6.50618 34.4099C6.57009 34.2693 6.59565 34.0904 6.5573 33.8731C6.53174 33.6558 6.45505 33.4768 6.34001 33.3362Z" fill="#961914"/>
<path d="M1.67448 27.4181L1.71282 26.894L7.2859 29.2715L7.24755 29.7828L1.67448 27.4181Z" fill="#961914"/>
<path d="M5.93097 22.5991L5.67533 23.4555L7.46485 23.9796L7.29868 24.5548L3.22113 23.3533L3.3873 22.7781L5.15125 23.3021L5.4069 22.4457L4.01363 20.6434L4.19258 20.0171L5.73924 22.0623L8.29569 21.1547L8.10396 21.8194L5.93097 22.5991Z" fill="#961914"/>
<path d="M7.19642 16.7577C7.43928 16.6043 7.69493 16.5276 7.97614 16.5148C8.25735 16.502 8.53856 16.5787 8.83255 16.7321C9.11376 16.8855 9.34384 17.0772 9.49723 17.3201C9.65062 17.5629 9.72731 17.8186 9.74009 18.0998C9.74009 18.381 9.67618 18.6622 9.53558 18.9434C9.43332 19.148 9.29271 19.3141 9.12654 19.4419C8.96037 19.5698 8.76864 19.6592 8.55134 19.6976L10.0213 20.4773L9.75288 20.9886L5.8415 18.9179L6.10993 18.4194L6.55731 18.6622C6.45505 18.4577 6.4167 18.2532 6.42948 18.0359C6.44227 17.8186 6.50618 17.6013 6.62122 17.3968C6.76182 17.1284 6.95356 16.9111 7.19642 16.7577ZM9.17767 18.1893C9.17767 17.9975 9.11376 17.8186 9.0115 17.6652C8.90925 17.499 8.75586 17.3712 8.55134 17.2562C8.35961 17.1539 8.15509 17.1028 7.96336 17.1028C7.77162 17.1028 7.59267 17.1539 7.4265 17.2562C7.27311 17.3584 7.14529 17.499 7.04303 17.678C6.95356 17.8569 6.90243 18.0359 6.91521 18.2276C6.92799 18.4194 6.97912 18.5983 7.08138 18.7645C7.18364 18.9307 7.33703 19.0585 7.54154 19.1607C7.73328 19.263 7.93779 19.3141 8.12953 19.3141C8.32126 19.3141 8.50021 19.263 8.66638 19.1607C8.81977 19.0585 8.94759 18.9179 9.04985 18.7389C9.13933 18.56 9.19046 18.381 9.17767 18.1893Z" fill="#961914"/>
<path d="M11.0695 16.0674C10.801 16.1824 10.5198 16.208 10.2386 16.1697C9.95739 16.1313 9.68897 16.0035 9.4461 15.8118C9.20324 15.62 9.02429 15.3899 8.92203 15.1215C8.81977 14.8531 8.79421 14.5719 8.83255 14.2907C8.88368 14.0095 9.01151 13.741 9.20324 13.4854C9.40776 13.2297 9.63784 13.0508 9.90626 12.9485C10.1747 12.8335 10.4431 12.8079 10.7371 12.8463C11.0311 12.8846 11.2868 13.0124 11.5296 13.2042C11.7725 13.3959 11.9514 13.626 12.0537 13.8944C12.1559 14.1628 12.1815 14.4441 12.1432 14.7253C12.1048 15.0065 11.977 15.2749 11.7725 15.5305C11.568 15.7734 11.3379 15.9524 11.0695 16.0674ZM11.6063 14.6869C11.6319 14.4952 11.6063 14.3162 11.5296 14.1373C11.4529 13.9583 11.3251 13.7922 11.1589 13.6643C10.9928 13.5237 10.801 13.4343 10.6093 13.4087C10.4176 13.3576 10.2258 13.3831 10.0597 13.447C9.8807 13.5237 9.7401 13.6388 9.59949 13.7922C9.47167 13.9583 9.39497 14.1245 9.36941 14.3162C9.34384 14.4952 9.36941 14.6869 9.43332 14.8659C9.51001 15.0448 9.63784 15.211 9.80401 15.3516C9.98296 15.4922 10.1619 15.5689 10.3536 15.6072C10.5454 15.6456 10.7371 15.62 10.9033 15.5561C11.0822 15.4922 11.2356 15.3772 11.3634 15.211C11.4913 15.0448 11.5807 14.8659 11.6063 14.6869Z" fill="#961914"/>
<path d="M13.4853 9.20331L15.6072 11.6192L15.1726 12.0026L13.383 9.97025L12.3477 10.8778L12.7823 11.4402C13.0507 11.7853 13.268 12.0793 13.4086 12.335C13.5492 12.5906 13.6387 12.8207 13.6643 13.038C13.677 13.2553 13.6003 13.4342 13.4342 13.5876C13.3575 13.6515 13.2552 13.7282 13.1274 13.7794L12.8334 13.3831C12.8845 13.3575 12.9229 13.332 12.9612 13.2936C13.0763 13.1914 13.1274 13.0508 13.089 12.8974C13.0507 12.744 12.9868 12.5778 12.8718 12.4117C12.7567 12.2711 12.5905 12.041 12.3732 11.7598L11.6319 10.8267L13.4853 9.20331Z" fill="#961914"/>
<path d="M15.0575 8.04014L15.556 7.74615L16.7576 9.75297L17.2433 6.72357L17.6907 6.45514L19.3396 9.21611L18.8411 9.5101L17.6395 7.50329L17.1538 10.5199L16.6937 10.7883L15.0575 8.04014Z" fill="#961914"/>
<path d="M21.2953 6.9153L20.6689 7.15817L21.1547 8.42361L20.605 8.62813L19.4674 5.62429L20.017 5.41978L20.5028 6.68522L21.1419 6.44236L21.6404 4.80623L22.2284 4.58893L21.6404 6.46792L23.4555 7.5672L22.8164 7.81006L21.2953 6.9153Z" fill="#961914"/>
<path d="M43.0379 22.8931L42.2454 22.5991C41.0055 22.139 39.6251 22.2924 38.5258 23.021L31.4572 21.7683C30.9587 21.6788 30.4985 21.9345 30.294 22.3818C30.0895 22.842 30.2173 23.3533 30.6136 23.6601C31.6361 24.4654 32.8377 24.9894 34.1031 25.1939L31.6361 26.0887C31.1632 26.2549 30.882 26.715 30.9331 27.2135C30.9842 27.7121 31.3549 28.0955 31.8406 28.1594C33.7196 28.4279 35.6498 27.9805 37.2348 26.9323C37.3242 27.1752 37.4521 27.4053 37.6055 27.6354C37.6182 27.6481 37.631 27.6609 37.6438 27.6737L34.6016 29.8083C33.9369 30.2685 33.4001 30.8693 33.0038 31.5723C32.9016 31.7513 32.9655 31.9813 33.1444 32.0836C33.2723 32.1603 33.4384 32.1475 33.5535 32.058C33.6046 32.0325 33.643 31.9813 33.6685 31.9302C34.0136 31.3294 34.4738 30.8181 35.0362 30.4219L38.1679 28.2361C39.2672 29.182 40.9161 29.2971 42.1687 28.4279L43.562 27.4436C44.1372 28.5046 44.3928 29.6933 44.3034 30.8948L44.0861 30.5753C43.971 30.4091 43.7282 30.358 43.562 30.4858C43.3958 30.6008 43.3447 30.8437 43.4725 31.0099L44.9169 33.0678C45.032 33.234 45.2748 33.2851 45.441 33.1573C45.9523 32.7994 46.6297 32.8377 47.0899 33.2084L45.2748 34.4739L42.5011 32.0836C42.3477 31.943 42.1048 31.9685 41.9642 32.1219C41.8236 32.2753 41.8492 32.5182 42.0026 32.6588L43.3575 33.8348C43.153 34.1671 42.9101 34.4867 42.6545 34.7679C42.3221 34.7423 41.9898 34.7934 41.683 34.9213C41.5807 34.704 41.4401 34.4994 41.2867 34.3077C40.3281 33.1829 38.6664 32.94 37.4904 33.7581C36.8385 34.2182 36.3911 34.8829 36.2378 35.6498C36.0844 36.4296 36.2378 37.2093 36.6979 37.8612C36.9791 38.2702 37.3498 38.577 37.7588 38.7815C36.2889 38.8071 34.8317 38.1168 33.9242 36.8258C33.5407 36.2762 33.285 35.6498 33.1572 34.9852C33.1189 34.7807 32.9271 34.64 32.7226 34.6784C32.5181 34.7167 32.3775 34.9085 32.4159 35.113C32.5565 35.8799 32.8504 36.6085 33.2978 37.2476C33.5279 37.58 33.7963 37.8867 34.0903 38.1424C33.4512 38.8582 33.349 39.9447 33.9242 40.7628C34.5888 41.7214 35.9054 41.9515 36.8641 41.2868C37.4393 40.8778 37.7716 40.2131 37.7588 39.5229C38.7942 39.5101 39.8424 39.1905 40.7499 38.5642L44.1372 36.1995C44.3034 36.0844 44.3545 35.8416 44.2267 35.6754C44.0222 35.3814 43.7537 35.1513 43.4597 34.9979C43.6387 34.7806 43.7921 34.5634 43.9455 34.3333L45.0064 35.2408C45.1342 35.3559 45.3259 35.3686 45.4666 35.2664L47.8696 33.5791C48.0358 33.4641 48.0869 33.2212 47.9591 33.055C47.3583 32.1986 46.2335 31.9174 45.3259 32.3392L44.9553 31.8024C45.2748 30.1151 44.9936 28.3895 44.1372 26.9068C44.853 26.0376 44.9297 24.7593 44.2522 23.8007C43.9582 23.3916 43.5364 23.0721 43.0379 22.8931ZM36.4167 40.6988C35.8032 41.1207 34.9595 40.9801 34.5377 40.3665C34.1542 39.8296 34.2309 39.1011 34.6783 38.6409C35.3813 39.1138 36.1738 39.4078 36.9919 39.5101C37.0175 39.9703 36.8002 40.4304 36.4167 40.6988ZM40.3153 37.9762C39.3311 38.6665 37.9889 38.4236 37.2987 37.4521C36.6084 36.4679 36.8769 35.1258 37.9122 34.41C38.7686 33.8092 39.983 34.0009 40.6988 34.8318C40.8905 35.0619 41.0311 35.3175 41.1206 35.5987C41.1589 35.7138 41.2484 35.8032 41.3634 35.8416C41.4785 35.8799 41.6063 35.8671 41.7086 35.7905C42.2199 35.4325 42.8973 35.4709 43.3575 35.8416L40.3153 37.9762ZM31.0865 23.0721C30.9075 22.9315 30.9715 22.7525 30.997 22.7014C31.0226 22.6503 31.1121 22.4841 31.3421 22.5225L37.81 23.6601C37.7333 23.7495 37.6694 23.839 37.6055 23.9413L35.9821 24.5293C34.1926 24.6699 32.467 24.1458 31.0865 23.0721ZM31.9557 27.4181C31.7384 27.3925 31.7 27.2008 31.6873 27.1496C31.6873 27.0985 31.6745 26.894 31.8918 26.8173L37.1325 24.9127C37.0175 25.309 36.9919 25.7436 37.043 26.1526C35.5859 27.2008 33.7452 27.6609 31.9557 27.4181ZM43.1785 26.7917L41.7213 27.8143C40.5837 28.6068 39.0243 28.3256 38.2318 27.2008C37.4393 26.0631 37.7205 24.5037 38.8453 23.7112C39.7529 23.0721 40.9288 22.9187 41.977 23.315L42.7695 23.6089C43.1146 23.7368 43.4214 23.9668 43.6259 24.2736C44.2011 25.0917 44.0094 26.2165 43.1785 26.7917Z" fill="#961914"/>
<path d="M40.4687 24.7594C40.392 24.8105 40.3281 24.9 40.3153 25.0022C40.3025 25.1045 40.3153 25.2068 40.3792 25.2835C40.4431 25.3601 40.5198 25.4241 40.6221 25.4368C40.7243 25.4496 40.8266 25.4368 40.9033 25.3729C40.98 25.3218 41.0439 25.2323 41.0567 25.1301C41.0694 25.0278 41.0567 24.9255 40.9928 24.8489C40.9416 24.7722 40.8521 24.7082 40.7499 24.6955C40.6604 24.6699 40.5582 24.6955 40.4687 24.7594Z" fill="#961914"/>
<path d="M32.9783 33.6686C32.9016 33.7197 32.7993 33.7453 32.6971 33.7325C32.5948 33.7197 32.5053 33.6558 32.4542 33.5791C32.4031 33.5024 32.3775 33.4001 32.3903 33.2979C32.4031 33.1956 32.467 33.1062 32.5437 33.055C32.6204 33.0039 32.7226 32.9783 32.8249 32.9911C32.9271 33.0039 33.0166 33.0678 33.0677 33.1445C33.1189 33.2212 33.1444 33.3235 33.1317 33.4257C33.1189 33.528 33.0677 33.6174 32.9783 33.6686Z" fill="#961914"/>
<path d="M24.1202 20.6946C24.3249 20.6946 24.4908 20.5287 24.4908 20.3239C24.4908 20.1192 24.3249 19.9532 24.1202 19.9532C23.9154 19.9532 23.7495 20.1192 23.7495 20.3239C23.7495 20.5287 23.9154 20.6946 24.1202 20.6946Z" fill="#961914"/>
<path d="M12.7439 35.0619L14.4184 36.9025C15.5944 38.2063 17.1282 39.1394 18.8283 39.5868L19.9787 40.865C20.0426 40.9417 20.1321 40.9801 20.2343 40.9801L21.2697 41.0312C21.372 41.0312 21.4614 41.0056 21.5381 40.9417L22.0878 40.456C22.2412 40.3154 22.2539 40.0853 22.1133 39.9447L20.0043 37.6055L21.0396 37.6567L22.1645 38.9093C22.2284 38.986 22.3179 39.0244 22.4201 39.0244L23.4555 39.0755C23.5577 39.0755 23.6472 39.0499 23.7239 38.986L24.2735 38.5003C24.4269 38.3597 24.4397 38.1296 24.2991 37.989L21.8321 35.2536C22.1006 34.9468 22.2923 34.5889 22.3818 34.1927C22.4712 33.8475 22.663 33.528 22.9186 33.2851L24.3502 31.9941C24.7976 32.237 25.2833 32.4159 25.7691 32.5438L26.4465 32.7099L27.5969 33.9882C27.6608 34.0648 27.7503 34.1032 27.8526 34.1032L28.8879 34.1543C28.9902 34.1543 29.0797 34.1288 29.1564 34.0648L29.706 33.5791C29.8594 33.4385 29.8722 33.2084 29.7316 33.0678L27.3541 30.4347L28.6323 30.7542L29.7827 32.0325C29.8466 32.1092 29.9361 32.1475 30.0383 32.1475L31.0737 32.1986C31.176 32.1986 31.2654 32.1731 31.3421 32.1092L31.8918 31.6234C32.0452 31.4828 32.0579 31.2527 31.9173 31.1121L27.9804 26.7662L27.9676 26.779C27.9676 25.6925 27.5586 24.6571 26.83 23.8518L25.8458 22.7653L26.8172 21.8833C26.9578 21.7555 27.0729 21.5893 27.1496 21.4104C27.4052 20.7585 27.0856 20.0299 26.4337 19.787L26.0375 19.6337L26.5488 19.1735C26.6255 19.1096 26.6638 19.0201 26.6638 18.9178L26.715 17.8825C26.7277 17.678 26.5743 17.5118 26.3698 17.499L25.3345 17.4479C25.2322 17.4479 25.1427 17.4735 25.066 17.5374L24.5164 18.0231C23.8389 17.2689 22.6758 17.2178 21.9344 17.8953L20.9246 18.8028C20.1065 19.5442 19.5441 20.5156 19.3012 21.5893C19.0967 22.5225 18.611 23.3533 17.908 23.9924L13.1018 28.3384C11.1334 30.1023 10.98 33.1062 12.7439 35.0619ZM25.9097 18.7133L25.4751 19.0968L24.9893 18.5472L25.4239 18.1637L25.9352 18.1893L25.9097 18.7133ZM25.1939 22.3179L24.2096 22.0751L23.5449 21.3465C23.4043 21.1931 23.1743 21.1803 23.0337 21.3209L22.3306 21.96L21.8193 21.9345L21.8449 21.4232L22.5479 20.7841C22.5863 20.7457 22.6246 20.6946 22.6374 20.6435L22.9058 19.966L24.1968 18.79L25.4239 20.1449L25.1555 20.3878L25.6412 20.9374L26.1525 20.4773C26.2164 20.5029 26.2804 20.554 26.3315 20.6051C26.5232 20.8224 26.5104 21.1547 26.2931 21.3465L25.1939 22.3179ZM30.1917 31.4189L29.3098 30.4475L29.8594 29.9617L31.0865 31.3167L30.9331 31.4573L30.1917 31.4189ZM26.9323 29.5783C27.3796 29.0414 27.6864 28.4023 27.827 27.7121L29.3609 29.4121L28.6962 30.0129L26.9323 29.5783ZM28.0187 33.3874L27.1368 32.4159L27.6864 31.9302L28.9135 33.2851L28.7601 33.4257L28.0187 33.3874ZM22.5863 38.3086L21.7043 37.3371L22.2539 36.8514L23.481 38.2063L23.3149 38.3469L22.5863 38.3086ZM20.017 36.8769L21.2697 35.7521L21.7554 36.3017L21.0524 36.9409L20.017 36.8769ZM20.4133 40.2643L19.5313 39.2928L20.081 38.8071L21.3081 40.162L21.1547 40.3026L20.4133 40.2643ZM13.2808 34.5761C11.7853 32.9272 11.9131 30.3836 13.562 28.888L18.3681 24.5421C19.1862 23.8007 19.7486 22.8292 19.9915 21.7555C20.196 20.8224 20.6817 19.9916 21.3847 19.3524L22.3945 18.4449C22.7397 18.1381 23.251 18.0742 23.66 18.2915L22.3434 19.4803C22.3051 19.5186 22.2667 19.5697 22.2539 19.6209L21.9855 20.2983L21.2314 20.9758C21.1547 21.0397 21.1163 21.1292 21.1163 21.2314L21.0652 22.2668C21.0524 22.4713 21.2058 22.6375 21.4103 22.6503L22.4457 22.7014C22.5479 22.7014 22.6374 22.6758 22.7141 22.6119L23.2637 22.1262L23.7495 22.6758C23.8006 22.727 23.8645 22.7653 23.9284 22.7909L25.1044 23.0849L26.2548 24.3631C27.5202 25.7564 27.5202 27.8782 26.2548 29.2843L25.2833 28.2106L24.7337 28.6963L27.1879 31.4189L26.5232 32.0197L25.9225 31.8663C24.836 31.5979 23.8517 30.9971 23.0976 30.1663L22.5479 30.652C22.8803 31.0227 23.251 31.3422 23.66 31.6234L22.3945 32.7738C22.0239 33.1062 21.7554 33.5536 21.6276 34.0393C21.5381 34.3844 21.3464 34.704 21.0908 34.9468L19.1351 36.7108L17.6651 35.0746L17.1155 35.5604L19.5697 38.283L18.9178 38.8582C17.3967 38.4364 16.0162 37.5928 14.9553 36.404L13.2808 34.5761Z" fill="#961914"/>
</g>
<defs>
<clipPath id="clip0_177_26">
<rect width="60" height="60" fill="white"/>
</clipPath>
</defs>
</svg>
